{
  "source": "C:\\Users\\Peter\\Desktop\\stuff\\MIUN\\quantitative_research\\video_compression\\videos\\UVG\\Beauty_1920x1080_120fps_420_8bit_YUV.y4m",
  "output": "C:\\Users\\Peter\\Desktop\\stuff\\MIUN\\quantitative_research\\video_compression\\compressed_videos\\UVG\\vp9\\12\\Beauty_1920x1080_120fps_420_8bit_YUV_vp9.webm",
  "codec": "vp9",
  "ok": "[yuv4mpegpipe @ 000001f5b90754c0] Stream #0: not enough frames to estimate rate; consider increasing probesize\nInput #0, yuv4mpegpipe, from 'C:\\Users\\Peter\\Desktop\\stuff\\MIUN\\quantitative_research\\video_compression\\videos\\UVG\\Beauty_1920x1080_120fps_420_8bit_YUV.y4m':\n  Duration: 00:00:05.00, start: 0.000000, bitrate: 2985989 kb/s\n  Stream #0:0: Video: rawvideo (I420 / 0x30323449), yuv420p(progressive), 1920x1080, 120 fps, 120 tbr, 120 tbn\n[out#0/webm @ 000001f5b9079480] Codec AVOption b:a (set bitrate (in bits/s)) has not been used for any stream. The most likely reason is either wrong type (e.g. a video option with no video streams) or that it is a private option of some decoder which was not actually used for any stream.\nStream mapping:\n  Stream #0:0 -> #0:0 (rawvideo (native) -> vp9 (libvpx-vp9))\nPress [q] to stop, [?] for help\n[libvpx-vp9 @ 000001f5b907c4c0] v1.15.2-100-g40561f514\nOutput #0, webm, to 'C:\\Users\\Peter\\Desktop\\stuff\\MIUN\\quantitative_research\\video_compression\\compressed_videos\\UVG\\vp9\\12\\Beauty_1920x1080_120fps_420_8bit_YUV_vp9.webm':\n  Metadata:\n    encoder         : Lavf62.3.100\n  Stream #0:0: Video: vp9, yuv420p(tv, progressive), 1920x1080, q=2-31, 12000 kb/s, 120 fps, 1k tbn\n    Metadata:\n      encoder         : Lavc62.11.100 libvpx-vp9\n    Side data:\n      cpb: bitrate max/min/avg: 0/0/0 buffer size: 12000000 vbv_delay: N/A\nframe=    0 fps=0.0 q=0.0 size=       0KiB time=N/A bitrate=N/A speed=N/A elapsed=0:00:00.50    \nframe=    0 fps=0.0 q=0.0 size=       0KiB time=N/A bitrate=N/A speed=N/A elapsed=0:00:01.07    \nframe=    1 fps=0.6 q=16.0 size=       0KiB time=00:00:00.00 bitrate= 461.8kbits/s speed=0.00518x elapsed=0:00:01.60    \nframe=    1 fps=0.5 q=16.0 size=       0KiB time=00:00:00.00 bitrate= 461.8kbits/s speed=0.00387x elapsed=0:00:02.15    \nframe=    3 fps=1.1 q=48.0 size=       0KiB time=00:00:00.02 bitrate= 153.9kbits/s speed=0.00925x elapsed=0:00:02.70    \nframe=    5 fps=1.5 q=35.0 size=       0KiB time=00:00:00.03 bitrate= 115.4kbits/s speed=0.0103x elapsed=0:00:03.23    \nframe=    6 fps=1.6 q=33.0 size=       0KiB time=00:00:00.05 bitrate=  77.0kbits/s speed=0.0133x elapsed=0:00:03.77    \nframe=    6 fps=1.4 q=33.0 size=       0KiB time=00:00:00.05 bitrate=  77.0kbits/s speed=0.0115x elapsed=0:00:04.33    \nframe=    7 fps=1.4 q=32.0 size=       0KiB time=00:00:00.05 bitrate=  66.0kbits/s speed=0.012x elapsed=0:00:04.87    \nframe=    8 fps=1.5 q=32.0 size=       0KiB time=00:00:00.06 bitrate=  57.7kbits/s speed=0.0123x elapsed=0:00:05.42    \nframe=    8 fps=1.3 q=32.0 size=       0KiB time=00:00:00.06 bitrate=  57.7kbits/s speed=0.0112x elapsed=0:00:05.96    \nframe=    9 fps=1.4 q=32.0 size=       0KiB time=00:00:00.07 bitrate=  51.3kbits/s speed=0.0115x elapsed=0:00:06.51    \nframe=   10 fps=1.4 q=32.0 size=       0KiB time=00:00:00.08 bitrate=  46.2kbits/s speed=0.0118x elapsed=0:00:07.07    \nframe=   10 fps=1.3 q=32.0 size=       0KiB time=00:00:00.08 bitrate=  46.2kbits/s speed=0.0109x elapsed=0:00:07.63    \nframe=   11 fps=1.3 q=32.0 size=       0KiB time=00:00:00.09 bitrate=  42.0kbits/s speed=0.0112x elapsed=0:00:08.18    \nframe=   12 fps=1.4 q=32.0 size=       0KiB time=00:00:00.10 bitrate=  38.5kbits/s speed=0.0114x elapsed=0:00:08.77    \nframe=   12 fps=1.3 q=32.0 size=       0KiB time=00:00:00.10 bitrate=  38.5kbits/s speed=0.0107x elapsed=0:00:09.35    \nframe=   13 fps=1.3 q=32.0 size=       0KiB time=00:00:00.10 bitrate=  35.5kbits/s speed=0.0109x elapsed=0:00:09.91    \nframe=   14 fps=1.3 q=32.0 size=       0KiB time=00:00:00.11 bitrate=  33.0kbits/s speed=0.0111x elapsed=0:00:10.49    \nframe=   14 fps=1.3 q=32.0 size=       0KiB time=00:00:00.11 bitrate=  33.0kbits/s speed=0.0106x elapsed=0:00:11.02    \nframe=   15 fps=1.3 q=33.0 size=       0KiB time=00:00:00.12 bitrate=  30.8kbits/s speed=0.0108x elapsed=0:00:11.58    \nframe=   15 fps=1.2 q=33.0 size=       0KiB time=00:00:00.12 bitrate=  30.8kbits/s speed=0.0103x elapsed=0:00:12.15    \nframe=   15 fps=1.2 q=33.0 size=       0KiB time=00:00:00.12 bitrate=  30.8kbits/s speed=0.00982x elapsed=0:00:12.72    \nframe=   16 fps=1.2 q=24.0 size=       0KiB time=00:00:00.13 bitrate=  28.9kbits/s speed=0.01x elapsed=0:00:13.28    \nframe=   16 fps=1.2 q=24.0 size=       0KiB time=00:00:00.13 bitrate=  28.9kbits/s speed=0.00965x elapsed=0:00:13.81    \nframe=   17 fps=1.2 q=33.0 size=       0KiB time=00:00:00.14 bitrate=  27.2kbits/s speed=0.00986x elapsed=0:00:14.36    \nframe=   18 fps=1.2 q=33.0 size=       0KiB time=00:00:00.15 bitrate=  25.7kbits/s speed=0.0101x elapsed=0:00:14.90    \nframe=   19 fps=1.2 q=33.0 size=       0KiB time=00:00:00.15 bitrate=  24.3kbits/s speed=0.0102x elapsed=0:00:15.44    \nframe=   20 fps=1.3 q=33.0 size=       0KiB time=00:00:00.15 bitrate=  24.3kbits/s speed=0.0099x elapsed=0:00:15.99    \nframe=   20 fps=1.2 q=33.0 size=       0KiB time=00:00:00.16 bitrate=  23.1kbits/s speed=0.0101x elapsed=0:00:16.53    \nframe=   21 fps=1.2 q=34.0 size=       0KiB time=00:00:00.17 bitrate=  22.0kbits/s speed=0.0102x elapsed=0:00:17.07    \nframe=   22 fps=1.3 q=35.0 size=       0KiB time=00:00:00.18 bitrate=  21.0kbits/s speed=0.0104x elapsed=0:00:17.59    \nframe=   23 fps=1.3 q=35.0 size=       0KiB time=00:00:00.19 bitrate=  20.1kbits/s speed=0.0106x elapsed=0:00:18.13    \nframe=   23 fps=1.2 q=35.0 size=       0KiB time=00:00:00.19 bitrate=  20.1kbits/s speed=0.0103x elapsed=0:00:18.67    \nframe=   24 fps=1.2 q=35.0 size=       0KiB time=00:00:00.20 bitrate=  19.2kbits/s speed=0.0104x elapsed=0:00:19.22    \nframe=   25 fps=1.3 q=35.0 size=       0KiB time=00:00:00.20 bitrate=  18.5kbits/s speed=0.0105x elapsed=0:00:19.78    \nframe=   26 fps=1.3 q=35.0 size=       0KiB time=00:00:00.21 bitrate=  17.8kbits/s speed=0.0107x elapsed=0:00:20.31    \nframe=   26 fps=1.2 q=35.0 size=       0KiB time=00:00:00.21 bitrate=  17.8kbits/s speed=0.0104x elapsed=0:00:20.85    \nframe=   27 fps=1.3 q=35.0 size=       0KiB time=00:00:00.22 bitrate=  17.1kbits/s speed=0.0105x elapsed=0:00:21.40    \nframe=   28 fps=1.3 q=35.0 size=       0KiB time=00:00:00.23 bitrate=  16.5kbits/s speed=0.0106x elapsed=0:00:21.94    \nframe=   28 fps=1.2 q=35.0 size=       0KiB time=00:00:00.23 bitrate=  16.5kbits/s speed=0.0104x elapsed=0:00:22.50    \nframe=   29 fps=1.3 q=35.0 size=       0KiB time=00:00:00.24 bitrate=  15.9kbits/s speed=0.0105x elapsed=0:00:23.06    \nframe=   30 fps=1.3 q=35.0 size=       0KiB time=00:00:00.25 bitrate=  15.4kbits/s speed=0.0106x elapsed=0:00:23.60    \nframe=   30 fps=1.2 q=35.0 size=       0KiB time=00:00:00.25 bitrate=  15.4kbits/s speed=0.0103x elapsed=0:00:24.15    \nframe=   30 fps=1.2 q=35.0 size=       0KiB time=00:00:00.25 bitrate=  15.4kbits/s speed=0.0101x elapsed=0:00:24.71    \nframe=   30 fps=1.2 q=35.0 size=       0KiB time=00:00:00.25 bitrate=  15.4kbits/s speed=0.0099x elapsed=0:00:25.25    \nframe=   31 fps=1.2 q=24.0 size=       0KiB time=00:00:00.25 bitrate=  14.9kbits/s speed=0.01x elapsed=0:00:25.78    \nframe=   32 fps=1.2 q=35.0 size=       0KiB time=00:00:00.26 bitrate=  14.4kbits/s speed=0.0101x elapsed=0:00:26.32    \nframe=   33 fps=1.2 q=35.0 size=       0KiB time=00:00:00.27 bitrate=  14.0kbits/s speed=0.0102x elapsed=0:00:26.86    \nframe=   34 fps=1.2 q=35.0 size=       0KiB time=00:00:00.28 bitrate=  13.6kbits/s speed=0.0103x elapsed=0:00:27.42    \nframe=   35 fps=1.3 q=35.0 size=       0KiB time=00:00:00.29 bitrate=  13.2kbits/s speed=0.0104x elapsed=0:00:27.96    \nframe=   35 fps=1.2 q=35.0 size=       0KiB time=00:00:00.29 bitrate=  13.2kbits/s speed=0.0102x elapsed=0:00:28.51    \nframe=   36 fps=1.2 q=34.0 size=       0KiB time=00:00:00.30 bitrate=  12.8kbits/s speed=0.0103x elapsed=0:00:29.05    \nframe=   36 fps=1.2 q=34.0 size=       0KiB time=00:00:00.30 bitrate=  12.8kbits/s speed=0.0101x elapsed=0:00:29.59    \nframe=   37 fps=1.2 q=34.0 size=       0KiB time=00:00:00.30 bitrate=  12.5kbits/s speed=0.0102x elapsed=0:00:30.13    \nframe=   37 fps=1.2 q=34.0 size=       0KiB time=00:00:00.30 bitrate=  12.5kbits/s speed=0.0101x elapsed=0:00:30.67    \nframe=   38 fps=1.2 q=34.0 size=       0KiB time=00:00:00.31 bitrate=  12.2kbits/s speed=0.0101x elapsed=0:00:31.25    \nframe=   39 fps=1.2 q=34.0 size=       0KiB time=00:00:00.31 bitrate=  12.2kbits/s speed=0.00995x elapsed=0:00:31.83    \nframe=   39 fps=1.2 q=34.0 size=       0KiB time=00:00:00.32 bitrate=  11.8kbits/s speed=0.01x elapsed=0:00:32.44    \nframe=   40 fps=1.2 q=34.0 size=       0KiB time=00:00:00.33 bitrate=  11.5kbits/s speed=0.0101x elapsed=0:00:33.01    \nframe=   40 fps=1.2 q=34.0 size=       0KiB time=00:00:00.33 bitrate=  11.5kbits/s speed=0.00993x elapsed=0:00:33.56    \nframe=   41 fps=1.2 q=34.0 size=       0KiB time=00:00:00.34 bitrate=  11.3kbits/s speed=0.01x elapsed=0:00:34.11    \nframe=   42 fps=1.2 q=34.0 size=       0KiB time=00:00:00.35 bitrate=  11.0kbits/s speed=0.0101x elapsed=0:00:34.67    \nframe=   43 fps=1.2 q=34.0 size=       0KiB time=00:00:00.35 bitrate=  11.0kbits/s speed=0.00994x elapsed=0:00:35.22    \nframe=   43 fps=1.2 q=34.0 size=       0KiB time=00:00:00.35 bitrate=  10.7kbits/s speed=0.01x elapsed=0:00:35.78    \nframe=   44 fps=1.2 q=33.0 size=       0KiB time=00:00:00.36 bitrate=  10.5kbits/s speed=0.0101x elapsed=0:00:36.33    \nframe=   45 fps=1.2 q=33.0 size=       0KiB time=00:00:00.37 bitrate=  10.3kbits/s speed=0.0102x elapsed=0:00:36.91    \nframe=   45 fps=1.2 q=33.0 size=       0KiB time=00:00:00.37 bitrate=  10.3kbits/s speed=0.01x elapsed=0:00:37.51    \nframe=   45 fps=1.2 q=33.0 size=       0KiB time=00:00:00.37 bitrate=  10.3kbits/s speed=0.00984x elapsed=0:00:38.10    \nframe=   45 fps=1.2 q=33.0 size=       0KiB time=00:00:00.37 bitrate=  10.3kbits/s speed=0.0097x elapsed=0:00:38.67    \nframe=   45 fps=1.1 q=33.0 size=       0KiB time=00:00:00.37 bitrate=  10.3kbits/s speed=0.00956x elapsed=0:00:39.22    \nframe=   46 fps=1.2 q=18.0 size=       0KiB time=00:00:00.38 bitrate=  10.0kbits/s speed=0.00963x elapsed=0:00:39.78    \nframe=   47 fps=1.2 q=34.0 size=       0KiB time=00:00:00.39 bitrate=   9.8kbits/s speed=0.00971x elapsed=0:00:40.34    \nframe=   47 fps=1.1 q=34.0 size=       0KiB time=00:00:00.39 bitrate=   9.8kbits/s speed=0.00957x elapsed=0:00:40.91    \nframe=   48 fps=1.2 q=33.0 size=       0KiB time=00:00:00.40 bitrate=   9.6kbits/s speed=0.00965x elapsed=0:00:41.46    \nframe=   49 fps=1.2 q=33.0 size=       0KiB time=00:00:00.40 bitrate=   9.4kbits/s speed=0.00971x elapsed=0:00:42.03    \nframe=   49 fps=1.1 q=33.0 size=       0KiB time=00:00:00.40 bitrate=   9.4kbits/s speed=0.00958x elapsed=0:00:42.61    \nframe=   50 fps=1.2 q=33.0 size=       0KiB time=00:00:00.41 bitrate=   9.2kbits/s speed=0.00965x elapsed=0:00:43.18    \nframe=   51 fps=1.2 q=33.0 size=       0KiB time=00:00:00.42 bitrate=   9.1kbits/s speed=0.00971x elapsed=0:00:43.76    \nframe=   51 fps=1.1 q=33.0 size=       0KiB time=00:00:00.42 bitrate=   9.1kbits/s speed=0.00958x elapsed=0:00:44.35    \nframe=   52 fps=1.2 q=33.0 size=       0KiB time=00:00:00.43 bitrate=   8.9kbits/s speed=0.00965x elapsed=0:00:44.91    \nframe=   52 fps=1.1 q=33.0 size=       0KiB time=00:00:00.43 bitrate=   8.9kbits/s speed=0.00953x elapsed=0:00:45.48    \nframe=   53 fps=1.2 q=33.0 size=       0KiB time=00:00:00.44 bitrate=   8.7kbits/s speed=0.00959x elapsed=0:00:46.06    \nframe=   54 fps=1.2 q=33.0 size=       0KiB time=00:00:00.45 bitrate=   8.6kbits/s speed=0.00965x elapsed=0:00:46.63    \nframe=   55 fps=1.2 q=32.0 size=       0KiB time=00:00:00.45 bitrate=   8.4kbits/s speed=0.00971x elapsed=0:00:47.19    \nframe=   55 fps=1.2 q=32.0 size=       0KiB time=00:00:00.45 bitrate=   8.4kbits/s speed=0.0096x elapsed=0:00:47.73    \nframe=   56 fps=1.2 q=32.0 size=       0KiB time=00:00:00.46 bitrate=   8.2kbits/s speed=0.00967x elapsed=0:00:48.27    \nframe=   57 fps=1.2 q=32.0 size=       0KiB time=00:00:00.47 bitrate=   8.1kbits/s speed=0.00973x elapsed=0:00:48.84    \nframe=   57 fps=1.2 q=32.0 size=       0KiB time=00:00:00.47 bitrate=   8.1kbits/s speed=0.00962x elapsed=0:00:49.38    \nframe=   58 fps=1.2 q=32.0 size=       0KiB time=00:00:00.48 bitrate=   8.0kbits/s speed=0.00968x elapsed=0:00:49.94    \nframe=   59 fps=1.2 q=32.0 size=       0KiB time=00:00:00.49 bitrate=   7.8kbits/s speed=0.00973x elapsed=0:00:50.52    \nframe=   60 fps=1.2 q=32.0 size=       0KiB time=00:00:00.50 bitrate=   7.7kbits/s speed=0.00979x elapsed=0:00:51.08    \nframe=   60 fps=1.2 q=32.0 size=       0KiB time=00:00:00.50 bitrate=   7.7kbits/s speed=0.00968x elapsed=0:00:51.65    \nframe=   60 fps=1.1 q=32.0 size=       0KiB time=00:00:00.50 bitrate=   7.7kbits/s speed=0.00958x elapsed=0:00:52.20    \nframe=   60 fps=1.1 q=32.0 size=       0KiB time=00:00:00.50 bitrate=   7.7kbits/s speed=0.00948x elapsed=0:00:52.75    \nframe=   60 fps=1.1 q=32.0 size=       0KiB time=00:00:00.50 bitrate=   7.7kbits/s speed=0.00938x elapsed=0:00:53.30    \nframe=   61 fps=1.1 q=19.0 size=       0KiB time=00:00:00.50 bitrate=   7.6kbits/s speed=0.00944x elapsed=0:00:53.86    \nframe=   62 fps=1.1 q=32.0 size=       0KiB time=00:00:00.51 bitrate=   7.4kbits/s speed=0.00949x elapsed=0:00:54.42    \nframe=   62 fps=1.1 q=32.0 size=       0KiB time=00:00:00.51 bitrate=   7.4kbits/s speed=0.0094x elapsed=0:00:54.98    \nframe=   63 fps=1.1 q=31.0 size=       0KiB time=00:00:00.52 bitrate=   7.3kbits/s speed=0.00945x elapsed=0:00:55.53    \nframe=   63 fps=1.1 q=31.0 size=       0KiB time=00:00:00.52 bitrate=   7.3kbits/s speed=0.00936x elapsed=0:00:56.09    \nframe=   64 fps=1.1 q=31.0 size=       0KiB time=00:00:00.53 bitrate=   7.2kbits/s speed=0.00941x elapsed=0:00:56.65    \nframe=   65 fps=1.1 q=31.0 size=       0KiB time=00:00:00.54 bitrate=   7.1kbits/s speed=0.00947x elapsed=0:00:57.22    \nframe=   66 fps=1.1 q=31.0 size=       0KiB time=00:00:00.55 bitrate=   7.0kbits/s speed=0.00952x elapsed=0:00:57.77    \nframe=   67 fps=1.1 q=31.0 size=       0KiB time=00:00:00.55 bitrate=   7.0kbits/s speed=0.0094x elapsed=0:00:58.50    \nframe=   69 fps=1.2 q=31.0 size=       0KiB time=00:00:00.56 bitrate=   6.8kbits/s speed=0.00951x elapsed=0:00:59.55    \nframe=   70 fps=1.2 q=31.0 size=       0KiB time=00:00:00.58 bitrate=   6.6kbits/s speed=0.00966x elapsed=0:01:00.40    \nframe=   72 fps=1.2 q=31.0 size=       0KiB time=00:00:00.59 bitrate=   6.5kbits/s speed=0.00967x elapsed=0:01:01.20    \nframe=   74 fps=1.2 q=32.0 size=       0KiB time=00:00:00.61 bitrate=   6.2kbits/s speed=0.00993x elapsed=0:01:02.10    \nframe=   75 fps=1.2 q=32.0 size=       0KiB time=00:00:00.62 bitrate=   6.2kbits/s speed=0.00991x elapsed=0:01:03.04    \nframe=   75 fps=1.2 q=32.0 size=       0KiB time=00:00:00.62 bitrate=   6.2kbits/s speed=0.00977x elapsed=0:01:03.95    \nframe=   77 fps=1.2 q=32.0 size=       0KiB time=00:00:00.64 bitrate=   6.0kbits/s speed=0.00993x elapsed=0:01:04.64    \nframe=   79 fps=1.2 q=33.0 size=       0KiB time=00:00:00.65 bitrate=   5.9kbits/s speed=0.00993x elapsed=0:01:05.47    \nframe=   80 fps=1.2 q=33.0 size=       0KiB time=00:00:00.66 bitrate=   5.8kbits/s speed=0.01x elapsed=0:01:06.34    \nframe=   82 fps=1.2 q=32.0 size=       0KiB time=00:00:00.68 bitrate=   5.6kbits/s speed=0.0102x elapsed=0:01:07.21    \nframe=   85 fps=1.2 q=32.0 size=       0KiB time=00:00:00.70 bitrate=   5.5kbits/s speed=0.0103x elapsed=0:01:08.08    \nframe=   87 fps=1.3 q=32.0 size=       0KiB time=00:00:00.71 bitrate=   5.4kbits/s speed=0.0104x elapsed=0:01:09.04    \nframe=   89 fps=1.3 q=32.0 size=       0KiB time=00:00:00.74 bitrate=   5.2kbits/s speed=0.0106x elapsed=0:01:09.95    \nframe=   90 fps=1.3 q=31.0 size=       0KiB time=00:00:00.75 bitrate=   5.1kbits/s speed=0.0106x elapsed=0:01:10.74    \nframe=   90 fps=1.3 q=31.0 size=       0KiB time=00:00:00.75 bitrate=   5.1kbits/s speed=0.0105x elapsed=0:01:11.44    \nframe=   93 fps=1.3 q=31.0 size=       0KiB time=00:00:00.77 bitrate=   5.0kbits/s speed=0.0107x elapsed=0:01:12.13    \nframe=   95 fps=1.3 q=31.0 size=       0KiB time=00:00:00.78 bitrate=   4.9kbits/s speed=0.0107x elapsed=0:01:12.93    \nframe=   96 fps=1.3 q=31.0 size=       0KiB time=00:00:00.80 bitrate=   4.8kbits/s speed=0.0109x elapsed=0:01:13.66    \nframe=   97 fps=1.3 q=32.0 size=       0KiB time=00:00:00.80 bitrate=   4.8kbits/s speed=0.0109x elapsed=0:01:14.18    \nframe=   99 fps=1.3 q=32.0 size=       0KiB time=00:00:00.82 bitrate=   4.7kbits/s speed=0.011x elapsed=0:01:14.69    \nframe=  100 fps=1.3 q=32.0 size=       0KiB time=00:00:00.83 bitrate=   4.6kbits/s speed=0.0111x elapsed=0:01:15.21    \nframe=  102 fps=1.3 q=32.0 size=       0KiB time=00:00:00.85 bitrate=   4.5kbits/s speed=0.0112x elapsed=0:01:15.72    \nframe=  103 fps=1.4 q=33.0 size=       0KiB time=00:00:00.85 bitrate=   4.5kbits/s speed=0.0113x elapsed=0:01:16.23    \nframe=  104 fps=1.4 q=33.0 size=       0KiB time=00:00:00.86 bitrate=   4.4kbits/s speed=0.0113x elapsed=0:01:16.75    \nframe=  105 fps=1.4 q=33.0 size=       0KiB time=00:00:00.87 bitrate=   4.4kbits/s speed=0.0113x elapsed=0:01:17.27    \nframe=  105 fps=1.3 q=33.0 size=       0KiB time=00:00:00.87 bitrate=   4.4kbits/s speed=0.0112x elapsed=0:01:17.79    \nframe=  106 fps=1.4 q=21.0 size=       0KiB time=00:00:00.88 bitrate=   4.4kbits/s speed=0.0113x elapsed=0:01:18.30    \nframe=  107 fps=1.4 q=35.0 size=       0KiB time=00:00:00.89 bitrate=   4.3kbits/s speed=0.0113x elapsed=0:01:18.82    \nframe=  109 fps=1.4 q=35.0 size=       0KiB time=00:00:00.90 bitrate=   4.2kbits/s speed=0.0114x elapsed=0:01:19.33    \nframe=  111 fps=1.4 q=35.0 size=       0KiB time=00:00:00.92 bitrate=   4.2kbits/s speed=0.0116x elapsed=0:01:19.85    \nframe=  112 fps=1.4 q=34.0 size=       0KiB time=00:00:00.93 bitrate=   4.1kbits/s speed=0.0116x elapsed=0:01:20.37    \nframe=  113 fps=1.4 q=34.0 size=       0KiB time=00:00:00.94 bitrate=   4.1kbits/s speed=0.0116x elapsed=0:01:20.89    \nframe=  115 fps=1.4 q=35.0 size=       0KiB time=00:00:00.95 bitrate=   4.0kbits/s speed=0.0118x elapsed=0:01:21.40    \nframe=  116 fps=1.4 q=35.0 size=       0KiB time=00:00:00.96 bitrate=   4.0kbits/s speed=0.0118x elapsed=0:01:21.91    \nframe=  116 fps=1.4 q=35.0 size=       0KiB time=00:00:00.96 bitrate=   4.0kbits/s speed=0.0117x elapsed=0:01:22.43    \nframe=  116 fps=1.4 q=35.0 size=       0KiB time=00:00:00.96 bitrate=   4.0kbits/s speed=0.0117x elapsed=0:01:22.94    \nframe=  119 fps=1.4 q=34.0 size=       0KiB time=00:00:00.99 bitrate=   3.9kbits/s speed=0.0119x elapsed=0:01:23.46    \nframe=  121 fps=1.4 q=34.0 size=       0KiB time=00:00:01.00 bitrate=   3.8kbits/s speed=0.012x elapsed=0:01:23.98    \nframe=  123 fps=1.5 q=34.0 size=       0KiB time=00:00:01.02 bitrate=   3.8kbits/s speed=0.0121x elapsed=0:01:24.49    \nframe=  125 fps=1.5 q=33.0 size=       0KiB time=00:00:01.04 bitrate=   3.7kbits/s speed=0.0123x elapsed=0:01:25.01    \nframe=  126 fps=1.5 q=33.0 size=       0KiB time=00:00:01.05 bitrate=   3.7kbits/s speed=0.0123x elapsed=0:01:25.53    \nframe=  127 fps=1.5 q=33.0 size=       0KiB time=00:00:01.05 bitrate=   3.6kbits/s speed=0.0123x elapsed=0:01:26.04    \nframe=  128 fps=1.5 q=33.0 size=       0KiB time=00:00:01.06 bitrate=   3.6kbits/s speed=0.0123x elapsed=0:01:26.56    \nframe=  129 fps=1.5 q=19.0 size=       0KiB time=00:00:01.07 bitrate=   3.6kbits/s speed=0.0123x elapsed=0:01:27.06    \nframe=  131 fps=1.5 q=32.0 size=    1536KiB time=00:00:01.09 bitrate=11526.3kbits/s speed=0.0125x elapsed=0:01:27.59    \nframe=  133 fps=1.5 q=32.0 size=    1536KiB time=00:00:01.10 bitrate=11353.0kbits/s speed=0.0126x elapsed=0:01:28.09    \nframe=  134 fps=1.5 q=32.0 size=    1536KiB time=00:00:01.11 bitrate=11268.3kbits/s speed=0.0126x elapsed=0:01:28.61    \nframe=  136 fps=1.5 q=32.0 size=    1536KiB time=00:00:01.13 bitrate=11102.6kbits/s speed=0.0127x elapsed=0:01:29.13    \nframe=  138 fps=1.5 q=32.0 size=    1536KiB time=00:00:01.15 bitrate=10941.7kbits/s speed=0.0128x elapsed=0:01:29.64    \nframe=  140 fps=1.6 q=32.0 size=    1536KiB time=00:00:01.16 bitrate=10785.4kbits/s speed=0.0129x elapsed=0:01:30.16    \nframe=  142 fps=1.6 q=32.0 size=    1536KiB time=00:00:01.18 bitrate=10633.4kbits/s speed=0.013x elapsed=0:01:30.68    \nframe=  143 fps=1.6 q=32.0 size=    1536KiB time=00:00:01.19 bitrate=10559.1kbits/s speed=0.0131x elapsed=0:01:31.20    \nframe=  143 fps=1.6 q=32.0 size=    1536KiB time=00:00:01.19 bitrate=10559.1kbits/s speed=0.013x elapsed=0:01:31.72    \nframe=  145 fps=1.6 q=32.0 size=    1536KiB time=00:00:01.20 bitrate=10413.4kbits/s speed=0.0131x elapsed=0:01:32.24    \nframe=  146 fps=1.6 q=32.0 size=    1536KiB time=00:00:01.21 bitrate=10342.1kbits/s speed=0.0131x elapsed=0:01:32.76    \nframe=  147 fps=1.6 q=31.0 size=    1536KiB time=00:00:01.22 bitrate=10271.8kbits/s speed=0.0131x elapsed=0:01:33.27    \nframe=  148 fps=1.6 q=31.0 size=    1536KiB time=00:00:01.23 bitrate=10202.4kbits/s speed=0.0132x elapsed=0:01:33.78    \nframe=  150 fps=1.6 q=30.0 size=    1536KiB time=00:00:01.25 bitrate=10066.3kbits/s speed=0.0133x elapsed=0:01:34.31    \nframe=  151 fps=1.6 q=30.0 size=    1536KiB time=00:00:01.25 bitrate=9999.7kbits/s speed=0.0133x elapsed=0:01:34.83    \nframe=  152 fps=1.6 q=30.0 size=    1536KiB time=00:00:01.26 bitrate=9933.9kbits/s speed=0.0133x elapsed=0:01:35.34    \nframe=  153 fps=1.6 q=30.0 size=    1536KiB time=00:00:01.27 bitrate=9869.0kbits/s speed=0.0133x elapsed=0:01:35.86    \nframe=  154 fps=1.6 q=30.0 size=    1536KiB time=00:00:01.28 bitrate=9804.9kbits/s speed=0.0133x elapsed=0:01:36.37    \nframe=  155 fps=1.6 q=30.0 size=    1536KiB time=00:00:01.29 bitrate=9741.6kbits/s speed=0.0133x elapsed=0:01:36.88    \nframe=  157 fps=1.6 q=30.0 size=    1536KiB time=00:00:01.30 bitrate=9617.5kbits/s speed=0.0134x elapsed=0:01:37.40    \nframe=  158 fps=1.6 q=30.0 size=    1536KiB time=00:00:01.31 bitrate=9556.6kbits/s speed=0.0134x elapsed=0:01:37.91    \nframe=  158 fps=1.6 q=30.0 size=    1536KiB time=00:00:01.31 bitrate=9556.6kbits/s speed=0.0134x elapsed=0:01:38.42    \nframe=  158 fps=1.6 q=30.0 size=    1536KiB time=00:00:01.31 bitrate=9556.6kbits/s speed=0.0133x elapsed=0:01:38.94    \nframe=  160 fps=1.6 q=29.0 size=    1536KiB time=00:00:01.33 bitrate=9437.2kbits/s speed=0.0134x elapsed=0:01:39.46    \nframe=  161 fps=1.6 q=31.0 size=    1536KiB time=00:00:01.34 bitrate=9378.6kbits/s speed=0.0134x elapsed=0:01:39.97    \nframe=  162 fps=1.6 q=31.0 size=    1536KiB time=00:00:01.35 bitrate=9320.7kbits/s speed=0.0134x elapsed=0:01:40.49    \nframe=  164 fps=1.6 q=31.0 size=    1536KiB time=00:00:01.36 bitrate=9207.0kbits/s speed=0.0135x elapsed=0:01:41.01    \nframe=  165 fps=1.6 q=31.0 size=    1536KiB time=00:00:01.37 bitrate=9151.2kbits/s speed=0.0135x elapsed=0:01:41.52    \nframe=  166 fps=1.6 q=31.0 size=    1536KiB time=00:00:01.38 bitrate=9096.1kbits/s speed=0.0136x elapsed=0:01:42.03    \nframe=  167 fps=1.6 q=31.0 size=    1536KiB time=00:00:01.39 bitrate=9041.6kbits/s speed=0.0136x elapsed=0:01:42.56    \nframe=  168 fps=1.6 q=31.0 size=    1536KiB time=00:00:01.40 bitrate=8987.8kbits/s speed=0.0136x elapsed=0:01:43.07    \nframe=  169 fps=1.6 q=31.0 size=    1536KiB time=00:00:01.40 bitrate=8934.6kbits/s speed=0.0136x elapsed=0:01:43.59    \nframe=  170 fps=1.6 q=31.0 size=    1536KiB time=00:00:01.41 bitrate=8882.1kbits/s speed=0.0136x elapsed=0:01:44.10    \nframe=  171 fps=1.6 q=31.0 size=    1536KiB time=00:00:01.42 bitrate=8830.1kbits/s speed=0.0136x elapsed=0:01:44.61    \nframe=  171 fps=1.6 q=31.0 size=    1536KiB time=00:00:01.42 bitrate=8830.1kbits/s speed=0.0136x elapsed=0:01:45.13    \nframe=  172 fps=1.6 q=31.0 size=    1536KiB time=00:00:01.43 bitrate=8778.8kbits/s speed=0.0136x elapsed=0:01:45.65    \nframe=  173 fps=1.6 q=30.0 size=    1536KiB time=00:00:01.44 bitrate=8728.0kbits/s speed=0.0136x elapsed=0:01:46.16    \nframe=  173 fps=1.6 q=30.0 size=    1536KiB time=00:00:01.44 bitrate=8728.0kbits/s speed=0.0135x elapsed=0:01:46.67    \nframe=  173 fps=1.6 q=30.0 size=    1536KiB time=00:00:01.44 bitrate=8728.0kbits/s speed=0.0134x elapsed=0:01:47.20    \nframe=  173 fps=1.6 q=30.0 size=    1536KiB time=00:00:01.44 bitrate=8728.0kbits/s speed=0.0134x elapsed=0:01:47.72    \nframe=  173 fps=1.6 q=30.0 size=    1536KiB time=00:00:01.44 bitrate=8728.0kbits/s speed=0.0133x elapsed=0:01:48.23    \nframe=  174 fps=1.6 q=18.0 size=    1536KiB time=00:00:01.45 bitrate=8677.9kbits/s speed=0.0133x elapsed=0:01:48.75    \nframe=  175 fps=1.6 q=30.0 size=    1536KiB time=00:00:01.45 bitrate=8628.3kbits/s speed=0.0133x elapsed=0:01:49.27    \nframe=  176 fps=1.6 q=31.0 size=    1536KiB time=00:00:01.46 bitrate=8579.3kbits/s speed=0.0134x elapsed=0:01:49.78    \nframe=  177 fps=1.6 q=31.0 size=    1536KiB time=00:00:01.46 bitrate=8579.3kbits/s speed=0.0133x elapsed=0:01:50.31    \nframe=  177 fps=1.6 q=31.0 size=    1536KiB time=00:00:01.47 bitrate=8530.8kbits/s speed=0.0133x elapsed=0:01:50.84    \nframe=  178 fps=1.6 q=31.0 size=    1536KiB time=00:00:01.48 bitrate=8482.9kbits/s speed=0.0133x elapsed=0:01:51.35    \nframe=  179 fps=1.6 q=31.0 size=    1536KiB time=00:00:01.49 bitrate=8435.5kbits/s speed=0.0133x elapsed=0:01:51.87    \nframe=  180 fps=1.6 q=31.0 size=    1536KiB time=00:00:01.50 bitrate=8388.6kbits/s speed=0.0133x elapsed=0:01:52.39    \nframe=  181 fps=1.6 q=31.0 size=    1536KiB time=00:00:01.50 bitrate=8342.3kbits/s speed=0.0134x elapsed=0:01:52.91    \nframe=  181 fps=1.6 q=31.0 size=    1536KiB time=00:00:01.50 bitrate=8342.3kbits/s speed=0.0133x elapsed=0:01:53.43    \nframe=  182 fps=1.6 q=30.0 size=    1536KiB time=00:00:01.51 bitrate=8296.4kbits/s speed=0.0133x elapsed=0:01:53.94    \nframe=  183 fps=1.6 q=30.0 size=    1536KiB time=00:00:01.52 bitrate=8251.1kbits/s speed=0.0133x elapsed=0:01:54.48    \nframe=  184 fps=1.6 q=30.0 size=    1536KiB time=00:00:01.53 bitrate=8206.2kbits/s speed=0.0133x elapsed=0:01:55.00    \nframe=  184 fps=1.6 q=30.0 size=    1536KiB time=00:00:01.53 bitrate=8206.2kbits/s speed=0.0133x elapsed=0:01:55.52    \nframe=  185 fps=1.6 q=30.0 size=    1536KiB time=00:00:01.54 bitrate=8161.9kbits/s speed=0.0133x elapsed=0:01:56.03    \nframe=  186 fps=1.6 q=30.0 size=    1536KiB time=00:00:01.55 bitrate=8118.0kbits/s speed=0.0133x elapsed=0:01:56.55    \nframe=  186 fps=1.6 q=30.0 size=    1536KiB time=00:00:01.55 bitrate=8118.0kbits/s speed=0.0132x elapsed=0:01:57.08    \nframe=  187 fps=1.6 q=30.0 size=    1536KiB time=00:00:01.55 bitrate=8074.6kbits/s speed=0.0133x elapsed=0:01:57.60    \nframe=  188 fps=1.6 q=30.0 size=    1536KiB time=00:00:01.56 bitrate=8031.6kbits/s speed=0.0133x elapsed=0:01:58.12    \nframe=  188 fps=1.6 q=30.0 size=    1536KiB time=00:00:01.56 bitrate=8031.6kbits/s speed=0.0132x elapsed=0:01:58.65    \nframe=  188 fps=1.6 q=30.0 size=    1536KiB time=00:00:01.56 bitrate=8031.6kbits/s speed=0.0131x elapsed=0:01:59.16    \nframe=  188 fps=1.6 q=30.0 size=    1536KiB time=00:00:01.56 bitrate=8031.6kbits/s speed=0.0131x elapsed=0:01:59.67    \nframe=  188 fps=1.6 q=30.0 size=    1536KiB time=00:00:01.56 bitrate=8031.6kbits/s speed=0.013x elapsed=0:02:00.21    \nframe=  189 fps=1.6 q=18.0 size=    1536KiB time=00:00:01.57 bitrate=7989.2kbits/s speed=0.013x elapsed=0:02:00.73    \nframe=  190 fps=1.6 q=30.0 size=    1536KiB time=00:00:01.58 bitrate=7947.1kbits/s speed=0.0131x elapsed=0:02:01.25    \nframe=  191 fps=1.6 q=31.0 size=    1536KiB time=00:00:01.59 bitrate=7905.5kbits/s speed=0.0131x elapsed=0:02:01.78    \nframe=  192 fps=1.6 q=31.0 size=    1536KiB time=00:00:01.60 bitrate=7864.3kbits/s speed=0.0131x elapsed=0:02:02.30    \nframe=  193 fps=1.6 q=30.0 size=    1536KiB time=00:00:01.60 bitrate=7823.6kbits/s speed=0.0131x elapsed=0:02:02.82    \nframe=  194 fps=1.6 q=30.0 size=    1536KiB time=00:00:01.61 bitrate=7783.2kbits/s speed=0.0131x elapsed=0:02:03.35    \nframe=  195 fps=1.6 q=30.0 size=    1536KiB time=00:00:01.62 bitrate=7743.3kbits/s speed=0.0131x elapsed=0:02:03.88    \nframe=  196 fps=1.6 q=30.0 size=    1536KiB time=00:00:01.63 bitrate=7703.8kbits/s speed=0.0131x elapsed=0:02:04.40    \nframe=  196 fps=1.6 q=30.0 size=    1536KiB time=00:00:01.63 bitrate=7703.8kbits/s speed=0.0131x elapsed=0:02:04.93    \nframe=  197 fps=1.6 q=30.0 size=    1536KiB time=00:00:01.64 bitrate=7664.7kbits/s speed=0.0131x elapsed=0:02:05.46    \nframe=  198 fps=1.6 q=31.0 size=    1536KiB time=00:00:01.65 bitrate=7626.0kbits/s speed=0.0131x elapsed=0:02:05.99    \nframe=  198 fps=1.6 q=31.0 size=    1536KiB time=00:00:01.65 bitrate=7626.0kbits/s speed=0.013x elapsed=0:02:06.52    \nframe=  199 fps=1.6 q=31.0 size=    1536KiB time=00:00:01.65 bitrate=7587.7kbits/s speed=0.0131x elapsed=0:02:07.03    \nframe=  200 fps=1.6 q=31.0 size=    1536KiB time=00:00:01.66 bitrate=7549.7kbits/s speed=0.0131x elapsed=0:02:07.56    \nframe=  200 fps=1.6 q=31.0 size=    1536KiB time=00:00:01.66 bitrate=7549.7kbits/s speed=0.013x elapsed=0:02:08.08    \nframe=  201 fps=1.6 q=31.0 size=    1536KiB time=00:00:01.67 bitrate=7512.2kbits/s speed=0.013x elapsed=0:02:08.60    \nframe=  202 fps=1.6 q=31.0 size=    1536KiB time=00:00:01.68 bitrate=7475.0kbits/s speed=0.013x elapsed=0:02:09.14    \nframe=  202 fps=1.6 q=31.0 size=    1536KiB time=00:00:01.68 bitrate=7475.0kbits/s speed=0.013x elapsed=0:02:09.66    \nframe=  203 fps=1.6 q=31.0 size=    1536KiB time=00:00:01.69 bitrate=7438.2kbits/s speed=0.013x elapsed=0:02:10.18    \nframe=  203 fps=1.6 q=31.0 size=    1536KiB time=00:00:01.69 bitrate=7438.2kbits/s speed=0.0129x elapsed=0:02:10.71    \nframe=  203 fps=1.5 q=31.0 size=    1536KiB time=00:00:01.69 bitrate=7438.2kbits/s speed=0.0129x elapsed=0:02:11.24    \nframe=  203 fps=1.5 q=31.0 size=    1536KiB time=00:00:01.69 bitrate=7438.2kbits/s speed=0.0128x elapsed=0:02:11.77    \nframe=  205 fps=1.5 q=31.0 size=    1536KiB time=00:00:01.70 bitrate=7365.6kbits/s speed=0.0129x elapsed=0:02:12.28    \nframe=  206 fps=1.6 q=32.0 size=    1536KiB time=00:00:01.71 bitrate=7329.9kbits/s speed=0.0129x elapsed=0:02:12.82    \nframe=  207 fps=1.6 q=32.0 size=    1536KiB time=00:00:01.72 bitrate=7294.4kbits/s speed=0.0129x elapsed=0:02:13.35    \nframe=  208 fps=1.6 q=32.0 size=    1536KiB time=00:00:01.73 bitrate=7259.4kbits/s speed=0.0129x elapsed=0:02:13.88    \nframe=  209 fps=1.6 q=32.0 size=    1536KiB time=00:00:01.74 bitrate=7224.6kbits/s speed=0.013x elapsed=0:02:14.41    \nframe=  209 fps=1.5 q=32.0 size=    1536KiB time=00:00:01.74 bitrate=7224.6kbits/s speed=0.0129x elapsed=0:02:14.94    \nframe=  210 fps=1.6 q=32.0 size=    1536KiB time=00:00:01.75 bitrate=7190.2kbits/s speed=0.0129x elapsed=0:02:15.48    \nframe=  211 fps=1.6 q=31.0 size=    1536KiB time=00:00:01.75 bitrate=7156.2kbits/s speed=0.0129x elapsed=0:02:16.00    \nframe=  211 fps=1.5 q=31.0 size=    1536KiB time=00:00:01.75 bitrate=7156.2kbits/s speed=0.0129x elapsed=0:02:16.52    \nframe=  212 fps=1.5 q=31.0 size=    1536KiB time=00:00:01.76 bitrate=7122.4kbits/s speed=0.0129x elapsed=0:02:17.04    \nframe=  213 fps=1.5 q=31.0 size=    1536KiB time=00:00:01.77 bitrate=7089.0kbits/s speed=0.0129x elapsed=0:02:17.56    \nframe=  214 fps=1.5 q=32.0 size=    1536KiB time=00:00:01.78 bitrate=7055.8kbits/s speed=0.0129x elapsed=0:02:18.09    \nframe=  214 fps=1.5 q=32.0 size=    1536KiB time=00:00:01.78 bitrate=7055.8kbits/s speed=0.0129x elapsed=0:02:18.61    \nframe=  215 fps=1.5 q=32.0 size=    1536KiB time=00:00:01.79 bitrate=7023.0kbits/s speed=0.0129x elapsed=0:02:19.13    \nframe=  216 fps=1.5 q=32.0 size=    1536KiB time=00:00:01.80 bitrate=6990.5kbits/s speed=0.0129x elapsed=0:02:19.64    \nframe=  217 fps=1.5 q=32.0 size=    1536KiB time=00:00:01.80 bitrate=6958.3kbits/s speed=0.0129x elapsed=0:02:20.16    \nframe=  217 fps=1.5 q=32.0 size=    1536KiB time=00:00:01.80 bitrate=6958.3kbits/s speed=0.0129x elapsed=0:02:20.67    \nframe=  218 fps=1.5 q=32.0 size=    1536KiB time=00:00:01.81 bitrate=6926.4kbits/s speed=0.0129x elapsed=0:02:21.21    \nframe=  218 fps=1.5 q=32.0 size=    1536KiB time=00:00:01.81 bitrate=6926.4kbits/s speed=0.0128x elapsed=0:02:21.74    \nframe=  218 fps=1.5 q=32.0 size=    1536KiB time=00:00:01.81 bitrate=6926.4kbits/s speed=0.0128x elapsed=0:02:22.25    \nframe=  218 fps=1.5 q=32.0 size=    1536KiB time=00:00:01.81 bitrate=6926.4kbits/s speed=0.0127x elapsed=0:02:22.78    \nframe=  220 fps=1.5 q=33.0 size=    1536KiB time=00:00:01.83 bitrate=6863.4kbits/s speed=0.0128x elapsed=0:02:23.31    \nframe=  220 fps=1.5 q=33.0 size=    1536KiB time=00:00:01.83 bitrate=6863.4kbits/s speed=0.0127x elapsed=0:02:23.83    \nframe=  221 fps=1.5 q=32.0 size=    1536KiB time=00:00:01.84 bitrate=6832.3kbits/s speed=0.0128x elapsed=0:02:24.35    \nframe=  223 fps=1.5 q=32.0 size=    1536KiB time=00:00:01.85 bitrate=6771.1kbits/s speed=0.0128x elapsed=0:02:24.88    \nframe=  223 fps=1.5 q=32.0 size=    1536KiB time=00:00:01.85 bitrate=6771.1kbits/s speed=0.0128x elapsed=0:02:25.41    \nframe=  224 fps=1.5 q=32.0 size=    1536KiB time=00:00:01.86 bitrate=6740.8kbits/s speed=0.0128x elapsed=0:02:25.93    \nframe=  225 fps=1.5 q=32.0 size=    1536KiB time=00:00:01.87 bitrate=6710.9kbits/s speed=0.0128x elapsed=0:02:26.44    \nframe=  226 fps=1.5 q=32.0 size=    1536KiB time=00:00:01.88 bitrate=6681.2kbits/s speed=0.0128x elapsed=0:02:26.96    \nframe=  227 fps=1.5 q=32.0 size=    1536KiB time=00:00:01.89 bitrate=6651.8kbits/s speed=0.0128x elapsed=0:02:27.49    \nframe=  227 fps=1.5 q=32.0 size=    1536KiB time=00:00:01.89 bitrate=6651.8kbits/s speed=0.0128x elapsed=0:02:28.02    \nframe=  228 fps=1.5 q=33.0 size=    1536KiB time=00:00:01.90 bitrate=6622.6kbits/s speed=0.0128x elapsed=0:02:28.55    \nframe=  229 fps=1.5 q=33.0 size=    1536KiB time=00:00:01.90 bitrate=6593.7kbits/s speed=0.0128x elapsed=0:02:29.08    \nframe=  230 fps=1.5 q=33.0 size=    1536KiB time=00:00:01.91 bitrate=6565.0kbits/s speed=0.0128x elapsed=0:02:29.61    \nframe=  231 fps=1.5 q=33.0 size=    1536KiB time=00:00:01.92 bitrate=6536.6kbits/s speed=0.0128x elapsed=0:02:30.13    \nframe=  232 fps=1.5 q=33.0 size=    1536KiB time=00:00:01.93 bitrate=6508.4kbits/s speed=0.0128x elapsed=0:02:30.66    \nframe=  233 fps=1.5 q=33.0 size=    1536KiB time=00:00:01.94 bitrate=6480.5kbits/s speed=0.0128x elapsed=0:02:31.17    \nframe=  233 fps=1.5 q=33.0 size=    1536KiB time=00:00:01.94 bitrate=6480.5kbits/s speed=0.0128x elapsed=0:02:31.70    \nframe=  233 fps=1.5 q=33.0 size=    1536KiB time=00:00:01.94 bitrate=6480.5kbits/s speed=0.0128x elapsed=0:02:32.22    \nframe=  234 fps=1.5 q=22.0 size=    1536KiB time=00:00:01.95 bitrate=6452.8kbits/s speed=0.0128x elapsed=0:02:32.75    \nframe=  235 fps=1.5 q=34.0 size=    1536KiB time=00:00:01.95 bitrate=6425.3kbits/s speed=0.0128x elapsed=0:02:33.27    \nframe=  237 fps=1.5 q=33.0 size=    1536KiB time=00:00:01.97 bitrate=6371.1kbits/s speed=0.0128x elapsed=0:02:33.79    \nframe=  237 fps=1.5 q=33.0 size=    1536KiB time=00:00:01.97 bitrate=6371.1kbits/s speed=0.0128x elapsed=0:02:34.32    \nframe=  238 fps=1.5 q=33.0 size=    1536KiB time=00:00:01.98 bitrate=6344.3kbits/s speed=0.0128x elapsed=0:02:34.85    \nframe=  239 fps=1.5 q=33.0 size=    1536KiB time=00:00:01.99 bitrate=6317.8kbits/s speed=0.0128x elapsed=0:02:35.38    \nframe=  240 fps=1.5 q=32.0 size=    1536KiB time=00:00:02.00 bitrate=6291.5kbits/s speed=0.0128x elapsed=0:02:35.89    \nframe=  241 fps=1.5 q=32.0 size=    1536KiB time=00:00:02.00 bitrate=6265.4kbits/s speed=0.0128x elapsed=0:02:36.42    \nframe=  242 fps=1.5 q=32.0 size=    1536KiB time=00:00:02.01 bitrate=6239.5kbits/s speed=0.0128x elapsed=0:02:36.95    \nframe=  243 fps=1.5 q=32.0 size=    1536KiB time=00:00:02.02 bitrate=6213.8kbits/s speed=0.0129x elapsed=0:02:37.48    \nframe=  244 fps=1.5 q=32.0 size=    1536KiB time=00:00:02.03 bitrate=6188.3kbits/s speed=0.0129x elapsed=0:02:38.00    \nframe=  244 fps=1.5 q=32.0 size=    1536KiB time=00:00:02.03 bitrate=6188.3kbits/s speed=0.0128x elapsed=0:02:38.52    \nframe=  244 fps=1.5 q=32.0 size=    1536KiB time=00:00:02.03 bitrate=6188.3kbits/s speed=0.0128x elapsed=0:02:39.04    \nframe=  244 fps=1.5 q=32.0 size=    1536KiB time=00:00:02.03 bitrate=6188.3kbits/s speed=0.0127x elapsed=0:02:39.55    \nframe=  244 fps=1.5 q=32.0 size=    1536KiB time=00:00:02.03 bitrate=6188.3kbits/s speed=0.0127x elapsed=0:02:40.08    \nframe=  245 fps=1.5 q=17.0 size=    1536KiB time=00:00:02.04 bitrate=6163.1kbits/s speed=0.0127x elapsed=0:02:40.61    \nframe=  246 fps=1.5 q=32.0 size=    1536KiB time=00:00:02.05 bitrate=6138.0kbits/s speed=0.0127x elapsed=0:02:41.13    \nframe=  247 fps=1.5 q=32.0 size=    1536KiB time=00:00:02.05 bitrate=6113.2kbits/s speed=0.0127x elapsed=0:02:41.66    \nframe=  248 fps=1.5 q=32.0 size=    1536KiB time=00:00:02.06 bitrate=6088.5kbits/s speed=0.0127x elapsed=0:02:42.18    \nframe=  249 fps=1.5 q=32.0 size=    1536KiB time=00:00:02.07 bitrate=6064.1kbits/s speed=0.0128x elapsed=0:02:42.70    \nframe=  250 fps=1.5 q=32.0 size=    1536KiB time=00:00:02.08 bitrate=6039.8kbits/s speed=0.0128x elapsed=0:02:43.23    \nframe=  251 fps=1.5 q=31.0 size=    1536KiB time=00:00:02.09 bitrate=6015.7kbits/s speed=0.0128x elapsed=0:02:43.75    \nframe=  252 fps=1.5 q=31.0 size=    1536KiB time=00:00:02.10 bitrate=5991.9kbits/s speed=0.0128x elapsed=0:02:44.27    \nframe=  253 fps=1.5 q=31.0 size=    1536KiB time=00:00:02.10 bitrate=5968.2kbits/s speed=0.0128x elapsed=0:02:44.79    \nframe=  253 fps=1.5 q=31.0 size=    1536KiB time=00:00:02.10 bitrate=5968.2kbits/s speed=0.0128x elapsed=0:02:45.30    \nframe=  255 fps=1.5 q=31.0 size=    1536KiB time=00:00:02.11 bitrate=5944.7kbits/s speed=0.0128x elapsed=0:02:45.84    \nframe=  255 fps=1.5 q=31.0 size=    1536KiB time=00:00:02.12 bitrate=5921.4kbits/s speed=0.0128x elapsed=0:02:46.37    \nframe=  256 fps=1.5 q=31.0 size=    1536KiB time=00:00:02.13 bitrate=5898.2kbits/s speed=0.0128x elapsed=0:02:46.89    \nframe=  256 fps=1.5 q=31.0 size=    1536KiB time=00:00:02.13 bitrate=5898.2kbits/s speed=0.0127x elapsed=0:02:47.41    \nframe=  257 fps=1.5 q=17.0 size=    1536KiB time=00:00:02.14 bitrate=5875.3kbits/s speed=0.0128x elapsed=0:02:47.94    \nframe=  258 fps=1.5 q=30.0 size=    3072KiB time=00:00:02.15 bitrate=11705.0kbits/s speed=0.0128x elapsed=0:02:48.45    \nframe=  260 fps=1.5 q=32.0 size=    3072KiB time=00:00:02.16 bitrate=11615.0kbits/s speed=0.0128x elapsed=0:02:48.98    \nframe=  261 fps=1.5 q=31.0 size=    3072KiB time=00:00:02.17 bitrate=11570.5kbits/s speed=0.0128x elapsed=0:02:49.50    \nframe=  262 fps=1.5 q=31.0 size=    3072KiB time=00:00:02.18 bitrate=11526.3kbits/s speed=0.0128x elapsed=0:02:50.03    \nframe=  263 fps=1.5 q=31.0 size=    3072KiB time=00:00:02.19 bitrate=11482.5kbits/s speed=0.0129x elapsed=0:02:50.54    \nframe=  264 fps=1.5 q=31.0 size=    3072KiB time=00:00:02.20 bitrate=11439.0kbits/s speed=0.0129x elapsed=0:02:51.05    \nframe=  265 fps=1.5 q=32.0 size=    3072KiB time=00:00:02.20 bitrate=11395.8kbits/s speed=0.0129x elapsed=0:02:51.57    \nframe=  266 fps=1.5 q=32.0 size=    3072KiB time=00:00:02.21 bitrate=11353.0kbits/s speed=0.0129x elapsed=0:02:52.10    \nframe=  267 fps=1.5 q=32.0 size=    3072KiB time=00:00:02.22 bitrate=11310.5kbits/s speed=0.0129x elapsed=0:02:52.62    \nframe=  268 fps=1.5 q=32.0 size=    3072KiB time=00:00:02.23 bitrate=11268.3kbits/s speed=0.0129x elapsed=0:02:53.13    \nframe=  269 fps=1.5 q=32.0 size=    3072KiB time=00:00:02.24 bitrate=11226.4kbits/s speed=0.0129x elapsed=0:02:53.66    \nframe=  269 fps=1.5 q=32.0 size=    3072KiB time=00:00:02.24 bitrate=11226.4kbits/s speed=0.0129x elapsed=0:02:54.18    \nframe=  270 fps=1.5 q=32.0 size=    3072KiB time=00:00:02.25 bitrate=11184.8kbits/s speed=0.0129x elapsed=0:02:54.71    \nframe=  271 fps=1.5 q=32.0 size=    3072KiB time=00:00:02.25 bitrate=11143.5kbits/s speed=0.0129x elapsed=0:02:55.22    \nframe=  271 fps=1.5 q=32.0 size=    3072KiB time=00:00:02.25 bitrate=11143.5kbits/s speed=0.0129x elapsed=0:02:55.73    \nframe=  271 fps=1.5 q=32.0 size=    3072KiB time=00:00:02.25 bitrate=11143.5kbits/s speed=0.0128x elapsed=0:02:56.26    \nframe=  271 fps=1.5 q=32.0 size=    3072KiB time=00:00:02.25 bitrate=11143.5kbits/s speed=0.0128x elapsed=0:02:56.78    \nframe=  272 fps=1.5 q=17.0 size=    3072KiB time=00:00:02.26 bitrate=11102.6kbits/s speed=0.0128x elapsed=0:02:57.30    \nframe=  273 fps=1.5 q=34.0 size=    3072KiB time=00:00:02.27 bitrate=11061.9kbits/s speed=0.0128x elapsed=0:02:57.82    \nframe=  274 fps=1.5 q=35.0 size=    3072KiB time=00:00:02.28 bitrate=11021.5kbits/s speed=0.0128x elapsed=0:02:58.34    \nframe=  275 fps=1.5 q=35.0 size=    3072KiB time=00:00:02.29 bitrate=10981.4kbits/s speed=0.0128x elapsed=0:02:58.85    \nframe=  276 fps=1.5 q=36.0 size=    3072KiB time=00:00:02.30 bitrate=10941.7kbits/s speed=0.0128x elapsed=0:02:59.36    \nframe=  277 fps=1.5 q=37.0 size=    3072KiB time=00:00:02.30 bitrate=10902.2kbits/s speed=0.0128x elapsed=0:02:59.89    \nframe=  278 fps=1.5 q=37.0 size=    3072KiB time=00:00:02.31 bitrate=10862.9kbits/s speed=0.0128x elapsed=0:03:00.41    \nframe=  279 fps=1.5 q=37.0 size=    3072KiB time=00:00:02.32 bitrate=10824.0kbits/s speed=0.0129x elapsed=0:03:00.93    \nframe=  280 fps=1.5 q=37.0 size=    3072KiB time=00:00:02.33 bitrate=10785.4kbits/s speed=0.0129x elapsed=0:03:01.45    \nframe=  281 fps=1.5 q=37.0 size=    3072KiB time=00:00:02.34 bitrate=10747.0kbits/s speed=0.0129x elapsed=0:03:01.95    \nframe=  282 fps=1.5 q=37.0 size=    3072KiB time=00:00:02.35 bitrate=10708.9kbits/s speed=0.0129x elapsed=0:03:02.47    \nframe=  283 fps=1.5 q=37.0 size=    3072KiB time=00:00:02.35 bitrate=10671.0kbits/s speed=0.0129x elapsed=0:03:02.99    \nframe=  283 fps=1.5 q=37.0 size=    3072KiB time=00:00:02.35 bitrate=10671.0kbits/s speed=0.0129x elapsed=0:03:03.50    \nframe=  284 fps=1.5 q=36.0 size=    3072KiB time=00:00:02.36 bitrate=10633.4kbits/s speed=0.0129x elapsed=0:03:04.02    \nframe=  285 fps=1.5 q=36.0 size=    3072KiB time=00:00:02.37 bitrate=10596.1kbits/s speed=0.0129x elapsed=0:03:04.54    \nframe=  286 fps=1.5 q=36.0 size=    3072KiB time=00:00:02.38 bitrate=10559.1kbits/s speed=0.0129x elapsed=0:03:05.06    \nframe=  286 fps=1.5 q=36.0 size=    3072KiB time=00:00:02.38 bitrate=10559.1kbits/s speed=0.0128x elapsed=0:03:05.56    \nframe=  286 fps=1.5 q=36.0 size=    3072KiB time=00:00:02.38 bitrate=10559.1kbits/s speed=0.0128x elapsed=0:03:06.08    \nframe=  286 fps=1.5 q=36.0 size=    3072KiB time=00:00:02.38 bitrate=10559.1kbits/s speed=0.0128x elapsed=0:03:06.61    \nframe=  287 fps=1.5 q=19.0 size=    3072KiB time=00:00:02.39 bitrate=10522.3kbits/s speed=0.0128x elapsed=0:03:07.14    \nframe=  288 fps=1.5 q=35.0 size=    3072KiB time=00:00:02.40 bitrate=10485.8kbits/s speed=0.0128x elapsed=0:03:07.66    \nframe=  289 fps=1.5 q=34.0 size=    3072KiB time=00:00:02.40 bitrate=10449.5kbits/s speed=0.0128x elapsed=0:03:08.17    \nframe=  291 fps=1.5 q=34.0 size=    3072KiB time=00:00:02.42 bitrate=10377.7kbits/s speed=0.0129x elapsed=0:03:08.70    \nframe=  292 fps=1.5 q=33.0 size=    3072KiB time=00:00:02.43 bitrate=10342.1kbits/s speed=0.0129x elapsed=0:03:09.21    \nframe=  293 fps=1.5 q=33.0 size=    3072KiB time=00:00:02.44 bitrate=10306.8kbits/s speed=0.0129x elapsed=0:03:09.73    \nframe=  294 fps=1.5 q=33.0 size=    3072KiB time=00:00:02.45 bitrate=10271.8kbits/s speed=0.0129x elapsed=0:03:10.25    \nframe=  295 fps=1.5 q=32.0 size=    3072KiB time=00:00:02.45 bitrate=10236.9kbits/s speed=0.0129x elapsed=0:03:10.77    \nframe=  296 fps=1.5 q=32.0 size=    3072KiB time=00:00:02.46 bitrate=10202.4kbits/s speed=0.0129x elapsed=0:03:11.29    \nframe=  296 fps=1.5 q=32.0 size=    3072KiB time=00:00:02.46 bitrate=10202.4kbits/s speed=0.0129x elapsed=0:03:11.82    \nframe=  297 fps=1.5 q=32.0 size=    3072KiB time=00:00:02.47 bitrate=10168.0kbits/s speed=0.0129x elapsed=0:03:12.33    \nframe=  298 fps=1.5 q=31.0 size=    3072KiB time=00:00:02.48 bitrate=10133.9kbits/s speed=0.0129x elapsed=0:03:12.85    \nframe=  299 fps=1.5 q=31.0 size=    3072KiB time=00:00:02.49 bitrate=10100.0kbits/s speed=0.0129x elapsed=0:03:13.37    \nframe=  299 fps=1.5 q=31.0 size=    3072KiB time=00:00:02.49 bitrate=10100.0kbits/s speed=0.0129x elapsed=0:03:13.90    \nframe=  300 fps=1.5 q=31.0 size=    3072KiB time=00:00:02.50 bitrate=10066.3kbits/s speed=0.0129x elapsed=0:03:14.42    \nframe=  301 fps=1.5 q=31.0 size=    3072KiB time=00:00:02.50 bitrate=10032.9kbits/s speed=0.0129x elapsed=0:03:14.95    \nframe=  301 fps=1.5 q=31.0 size=    3072KiB time=00:00:02.50 bitrate=10032.9kbits/s speed=0.0128x elapsed=0:03:15.48    \nframe=  301 fps=1.5 q=31.0 size=    3072KiB time=00:00:02.50 bitrate=10032.9kbits/s speed=0.0128x elapsed=0:03:16.01    \nframe=  301 fps=1.5 q=31.0 size=    3072KiB time=00:00:02.50 bitrate=10032.9kbits/s speed=0.0128x elapsed=0:03:16.54    \nframe=  302 fps=1.5 q=19.0 size=    3072KiB time=00:00:02.51 bitrate=9999.7kbits/s speed=0.0128x elapsed=0:03:17.05    \nframe=  303 fps=1.5 q=31.0 size=    3072KiB time=00:00:02.52 bitrate=9966.7kbits/s speed=0.0128x elapsed=0:03:17.57    \nframe=  304 fps=1.5 q=31.0 size=    3072KiB time=00:00:02.53 bitrate=9933.9kbits/s speed=0.0128x elapsed=0:03:18.08    \nframe=  305 fps=1.5 q=32.0 size=    3072KiB time=00:00:02.54 bitrate=9901.3kbits/s speed=0.0128x elapsed=0:03:18.59    \nframe=  306 fps=1.5 q=32.0 size=    3072KiB time=00:00:02.55 bitrate=9869.0kbits/s speed=0.0128x elapsed=0:03:19.11    \nframe=  307 fps=1.5 q=32.0 size=    3072KiB time=00:00:02.55 bitrate=9836.8kbits/s speed=0.0128x elapsed=0:03:19.63    \nframe=  308 fps=1.5 q=32.0 size=    3072KiB time=00:00:02.56 bitrate=9804.9kbits/s speed=0.0128x elapsed=0:03:20.15    \nframe=  309 fps=1.5 q=31.0 size=    3072KiB time=00:00:02.57 bitrate=9773.1kbits/s speed=0.0128x elapsed=0:03:20.66    \nframe=  309 fps=1.5 q=31.0 size=    3072KiB time=00:00:02.57 bitrate=9773.1kbits/s speed=0.0128x elapsed=0:03:21.18    \nframe=  310 fps=1.5 q=31.0 size=    3072KiB time=00:00:02.58 bitrate=9741.6kbits/s speed=0.0128x elapsed=0:03:21.71    \nframe=  311 fps=1.5 q=31.0 size=    3072KiB time=00:00:02.59 bitrate=9710.3kbits/s speed=0.0128x elapsed=0:03:22.22    \nframe=  312 fps=1.5 q=31.0 size=    3072KiB time=00:00:02.60 bitrate=9679.2kbits/s speed=0.0128x elapsed=0:03:22.73    \nframe=  312 fps=1.5 q=31.0 size=    3072KiB time=00:00:02.60 bitrate=9679.2kbits/s speed=0.0128x elapsed=0:03:23.26    \nframe=  313 fps=1.5 q=31.0 size=    3072KiB time=00:00:02.60 bitrate=9648.2kbits/s speed=0.0128x elapsed=0:03:23.77    \nframe=  314 fps=1.5 q=31.0 size=    3072KiB time=00:00:02.60 bitrate=9648.2kbits/s speed=0.0128x elapsed=0:03:24.28    \nframe=  314 fps=1.5 q=31.0 size=    3072KiB time=00:00:02.61 bitrate=9617.5kbits/s speed=0.0128x elapsed=0:03:24.82    \nframe=  315 fps=1.5 q=31.0 size=    3072KiB time=00:00:02.62 bitrate=9587.0kbits/s speed=0.0128x elapsed=0:03:25.33    \nframe=  316 fps=1.5 q=31.0 size=    3072KiB time=00:00:02.63 bitrate=9556.6kbits/s speed=0.0128x elapsed=0:03:25.85    \nframe=  316 fps=1.5 q=31.0 size=    3072KiB time=00:00:02.63 bitrate=9556.6kbits/s speed=0.0128x elapsed=0:03:26.37    \nframe=  316 fps=1.5 q=31.0 size=    3072KiB time=00:00:02.63 bitrate=9556.6kbits/s speed=0.0127x elapsed=0:03:26.89    \nframe=  316 fps=1.5 q=31.0 size=    3072KiB time=00:00:02.63 bitrate=9556.6kbits/s speed=0.0127x elapsed=0:03:27.43    \nframe=  317 fps=1.5 q=18.0 size=    3072KiB time=00:00:02.64 bitrate=9526.5kbits/s speed=0.0127x elapsed=0:03:27.97    \nframe=  318 fps=1.5 q=31.0 size=    3072KiB time=00:00:02.65 bitrate=9496.5kbits/s speed=0.0127x elapsed=0:03:28.51    \nframe=  320 fps=1.5 q=31.0 size=    3072KiB time=00:00:02.66 bitrate=9437.2kbits/s speed=0.0128x elapsed=0:03:29.04    \nframe=  321 fps=1.5 q=31.0 size=    3072KiB time=00:00:02.67 bitrate=9407.8kbits/s speed=0.0128x elapsed=0:03:29.58    \nframe=  321 fps=1.5 q=31.0 size=    3072KiB time=00:00:02.67 bitrate=9407.8kbits/s speed=0.0127x elapsed=0:03:30.12    \nframe=  322 fps=1.5 q=31.0 size=    3072KiB time=00:00:02.68 bitrate=9378.6kbits/s speed=0.0127x elapsed=0:03:30.67    \nframe=  323 fps=1.5 q=31.0 size=    3072KiB time=00:00:02.69 bitrate=9349.5kbits/s speed=0.0127x elapsed=0:03:31.21    \nframe=  324 fps=1.5 q=32.0 size=    3072KiB time=00:00:02.70 bitrate=9320.7kbits/s speed=0.0128x elapsed=0:03:31.74    \nframe=  325 fps=1.5 q=32.0 size=    3072KiB time=00:00:02.70 bitrate=9292.0kbits/s speed=0.0128x elapsed=0:03:32.28    \nframe=  326 fps=1.5 q=32.0 size=    3072KiB time=00:00:02.71 bitrate=9263.5kbits/s speed=0.0128x elapsed=0:03:32.84    \nframe=  327 fps=1.5 q=32.0 size=    3072KiB time=00:00:02.72 bitrate=9235.2kbits/s speed=0.0128x elapsed=0:03:33.39    \nframe=  328 fps=1.5 q=32.0 size=    3072KiB time=00:00:02.73 bitrate=9207.0kbits/s speed=0.0128x elapsed=0:03:33.94    \nframe=  329 fps=1.5 q=32.0 size=    3072KiB time=00:00:02.74 bitrate=9179.0kbits/s speed=0.0128x elapsed=0:03:34.49    \nframe=  330 fps=1.5 q=32.0 size=    3072KiB time=00:00:02.75 bitrate=9151.2kbits/s speed=0.0128x elapsed=0:03:35.03    \nframe=  331 fps=1.5 q=32.0 size=    3072KiB time=00:00:02.75 bitrate=9151.2kbits/s speed=0.0128x elapsed=0:03:35.57    \nframe=  331 fps=1.5 q=32.0 size=    3072KiB time=00:00:02.75 bitrate=9123.6kbits/s speed=0.0128x elapsed=0:03:36.11    \nframe=  331 fps=1.5 q=32.0 size=    3072KiB time=00:00:02.75 bitrate=9123.6kbits/s speed=0.0127x elapsed=0:03:36.65    \nframe=  331 fps=1.5 q=32.0 size=    3072KiB time=00:00:02.75 bitrate=9123.6kbits/s speed=0.0127x elapsed=0:03:37.19    \nframe=  332 fps=1.5 q=18.0 size=    3072KiB time=00:00:02.76 bitrate=9096.1kbits/s speed=0.0127x elapsed=0:03:37.74    \nframe=  333 fps=1.5 q=32.0 size=    3072KiB time=00:00:02.77 bitrate=9068.8kbits/s speed=0.0127x elapsed=0:03:38.28    \nframe=  334 fps=1.5 q=32.0 size=    3072KiB time=00:00:02.78 bitrate=9041.6kbits/s speed=0.0127x elapsed=0:03:38.82    \nframe=  335 fps=1.5 q=32.0 size=    3072KiB time=00:00:02.79 bitrate=9014.6kbits/s speed=0.0127x elapsed=0:03:39.37    \nframe=  336 fps=1.5 q=32.0 size=    3072KiB time=00:00:02.80 bitrate=8987.8kbits/s speed=0.0127x elapsed=0:03:39.90    \nframe=  337 fps=1.5 q=32.0 size=    3072KiB time=00:00:02.80 bitrate=8961.1kbits/s speed=0.0127x elapsed=0:03:40.44    \nframe=  338 fps=1.5 q=32.0 size=    3072KiB time=00:00:02.81 bitrate=8934.6kbits/s speed=0.0127x elapsed=0:03:40.99    \nframe=  339 fps=1.5 q=32.0 size=    3072KiB time=00:00:02.82 bitrate=8908.3kbits/s speed=0.0128x elapsed=0:03:41.54    \nframe=  340 fps=1.5 q=32.0 size=    3072KiB time=00:00:02.83 bitrate=8882.1kbits/s speed=0.0128x elapsed=0:03:42.08    \nframe=  341 fps=1.5 q=32.0 size=    3072KiB time=00:00:02.84 bitrate=8856.0kbits/s speed=0.0128x elapsed=0:03:42.64    \nframe=  342 fps=1.5 q=31.0 size=    3072KiB time=00:00:02.85 bitrate=8830.1kbits/s speed=0.0128x elapsed=0:03:43.18    \nframe=  343 fps=1.5 q=31.0 size=    3072KiB time=00:00:02.85 bitrate=8804.4kbits/s speed=0.0128x elapsed=0:03:43.71    \nframe=  343 fps=1.5 q=31.0 size=    3072KiB time=00:00:02.85 bitrate=8804.4kbits/s speed=0.0127x elapsed=0:03:44.27    \nframe=  344 fps=1.5 q=31.0 size=    3072KiB time=00:00:02.86 bitrate=8778.8kbits/s speed=0.0128x elapsed=0:03:44.83    \nframe=  345 fps=1.5 q=31.0 size=    3072KiB time=00:00:02.87 bitrate=8753.3kbits/s speed=0.0128x elapsed=0:03:45.37    \nframe=  346 fps=1.5 q=31.0 size=    3072KiB time=00:00:02.88 bitrate=8728.0kbits/s speed=0.0128x elapsed=0:03:45.92    \nframe=  346 fps=1.5 q=31.0 size=    3072KiB time=00:00:02.88 bitrate=8728.0kbits/s speed=0.0127x elapsed=0:03:46.48    \nframe=  346 fps=1.5 q=31.0 size=    3072KiB time=00:00:02.88 bitrate=8728.0kbits/s speed=0.0127x elapsed=0:03:47.04    \nframe=  346 fps=1.5 q=31.0 size=    3072KiB time=00:00:02.88 bitrate=8728.0kbits/s speed=0.0127x elapsed=0:03:47.59    \nframe=  347 fps=1.5 q=18.0 size=    3072KiB time=00:00:02.89 bitrate=8702.9kbits/s speed=0.0127x elapsed=0:03:48.15    \nframe=  348 fps=1.5 q=31.0 size=    3072KiB time=00:00:02.90 bitrate=8677.9kbits/s speed=0.0127x elapsed=0:03:48.71    \nframe=  349 fps=1.5 q=32.0 size=    3072KiB time=00:00:02.90 bitrate=8653.0kbits/s speed=0.0127x elapsed=0:03:49.25    \nframe=  350 fps=1.5 q=32.0 size=    3072KiB time=00:00:02.90 bitrate=8653.0kbits/s speed=0.0127x elapsed=0:03:49.80    \nframe=  350 fps=1.5 q=32.0 size=    3072KiB time=00:00:02.91 bitrate=8628.3kbits/s speed=0.0127x elapsed=0:03:50.36    \nframe=  351 fps=1.5 q=32.0 size=    3072KiB time=00:00:02.92 bitrate=8603.7kbits/s speed=0.0127x elapsed=0:03:50.91    \nframe=  352 fps=1.5 q=32.0 size=    3072KiB time=00:00:02.93 bitrate=8579.3kbits/s speed=0.0127x elapsed=0:03:51.47    \nframe=  353 fps=1.5 q=33.0 size=    3072KiB time=00:00:02.94 bitrate=8555.0kbits/s speed=0.0127x elapsed=0:03:52.02    \nframe=  354 fps=1.5 q=33.0 size=    3072KiB time=00:00:02.95 bitrate=8530.8kbits/s speed=0.0127x elapsed=0:03:52.58    \nframe=  355 fps=1.5 q=33.0 size=    3072KiB time=00:00:02.95 bitrate=8506.8kbits/s speed=0.0127x elapsed=0:03:53.13    \nframe=  356 fps=1.5 q=33.0 size=    3072KiB time=00:00:02.96 bitrate=8482.9kbits/s speed=0.0127x elapsed=0:03:53.68    \nframe=  357 fps=1.5 q=34.0 size=    3072KiB time=00:00:02.97 bitrate=8459.1kbits/s speed=0.0127x elapsed=0:03:54.24    \nframe=  358 fps=1.5 q=34.0 size=    3072KiB time=00:00:02.98 bitrate=8435.5kbits/s speed=0.0127x elapsed=0:03:54.81    \nframe=  359 fps=1.5 q=34.0 size=    3072KiB time=00:00:02.99 bitrate=8412.0kbits/s speed=0.0127x elapsed=0:03:55.37    \nframe=  360 fps=1.5 q=34.0 size=    3072KiB time=00:00:03.00 bitrate=8388.6kbits/s speed=0.0127x elapsed=0:03:55.92    \nframe=  361 fps=1.5 q=33.0 size=    3072KiB time=00:00:03.00 bitrate=8365.4kbits/s speed=0.0127x elapsed=0:03:56.48    \nframe=  361 fps=1.5 q=33.0 size=    3072KiB time=00:00:03.00 bitrate=8365.4kbits/s speed=0.0127x elapsed=0:03:57.03    \nframe=  361 fps=1.5 q=33.0 size=    3072KiB time=00:00:03.00 bitrate=8365.4kbits/s speed=0.0127x elapsed=0:03:57.58    \nframe=  361 fps=1.5 q=33.0 size=    3072KiB time=00:00:03.00 bitrate=8365.4kbits/s speed=0.0126x elapsed=0:03:58.12    \nframe=  363 fps=1.5 q=35.0 size=    3072KiB time=00:00:03.02 bitrate=8319.3kbits/s speed=0.0127x elapsed=0:03:58.67    \nframe=  364 fps=1.5 q=34.0 size=    3072KiB time=00:00:03.02 bitrate=8319.3kbits/s speed=0.0126x elapsed=0:03:59.20    \nframe=  364 fps=1.5 q=34.0 size=    3072KiB time=00:00:03.03 bitrate=8296.4kbits/s speed=0.0127x elapsed=0:03:59.75    \nframe=  365 fps=1.5 q=34.0 size=    3072KiB time=00:00:03.04 bitrate=8273.7kbits/s speed=0.0127x elapsed=0:04:00.32    \nframe=  368 fps=1.5 q=34.0 size=    3072KiB time=00:00:03.05 bitrate=8228.6kbits/s speed=0.0127x elapsed=0:04:00.93    \nframe=  371 fps=1.5 q=34.0 size=    3072KiB time=00:00:03.08 bitrate=8161.9kbits/s speed=0.0127x elapsed=0:04:01.94    \nframe=  372 fps=1.5 q=34.0 size=    3072KiB time=00:00:03.10 bitrate=8118.0kbits/s speed=0.0128x elapsed=0:04:02.78    \nframe=  372 fps=1.5 q=34.0 size=    3072KiB time=00:00:03.10 bitrate=8118.0kbits/s speed=0.0127x elapsed=0:04:03.74    \nframe=  375 fps=1.5 q=33.0 size=    3072KiB time=00:00:03.11 bitrate=8074.6kbits/s speed=0.0127x elapsed=0:04:04.51    \nframe=  378 fps=1.5 q=33.0 size=    3072KiB time=00:00:03.14 bitrate=8010.3kbits/s speed=0.0128x elapsed=0:04:05.38    \nframe=  380 fps=1.5 q=32.0 size=    3072KiB time=00:00:03.16 bitrate=7947.1kbits/s speed=0.0128x elapsed=0:04:06.47    \nframe=  382 fps=1.5 q=33.0 size=    3072KiB time=00:00:03.18 bitrate=7905.5kbits/s speed=0.0129x elapsed=0:04:07.18    \nframe=  384 fps=1.5 q=34.0 size=    3072KiB time=00:00:03.20 bitrate=7864.3kbits/s speed=0.0129x elapsed=0:04:07.85    \nframe=  386 fps=1.6 q=33.0 size=    4608KiB time=00:00:03.20 bitrate=11765.8kbits/s speed=0.0129x elapsed=0:04:08.68    \nframe=  388 fps=1.6 q=33.0 size=    4608KiB time=00:00:03.23 bitrate=11674.9kbits/s speed=0.013x elapsed=0:04:09.43    \nframe=  391 fps=1.6 q=34.0 size=    4608KiB time=00:00:03.25 bitrate=11615.0kbits/s speed=0.013x elapsed=0:04:10.27    \nframe=  394 fps=1.6 q=35.0 size=    4608KiB time=00:00:03.28 bitrate=11497.1kbits/s speed=0.0131x elapsed=0:04:11.12    \nframe=  397 fps=1.6 q=35.0 size=    4608KiB time=00:00:03.30 bitrate=11439.0kbits/s speed=0.0131x elapsed=0:04:11.89    \nframe=  399 fps=1.6 q=35.0 size=    4608KiB time=00:00:03.32 bitrate=11353.0kbits/s speed=0.0132x elapsed=0:04:12.70    \nframe=  399 fps=1.6 q=35.0 size=    4608KiB time=00:00:03.32 bitrate=11353.0kbits/s speed=0.0131x elapsed=0:04:13.70    \nframe=  400 fps=1.6 q=16.0 size=    4608KiB time=00:00:03.33 bitrate=11324.6kbits/s speed=0.0131x elapsed=0:04:14.43    \nframe=  402 fps=1.6 q=34.0 size=    4608KiB time=00:00:03.35 bitrate=11268.3kbits/s speed=0.0131x elapsed=0:04:15.05    \nframe=  404 fps=1.6 q=33.0 size=    4608KiB time=00:00:03.36 bitrate=11212.5kbits/s speed=0.0132x elapsed=0:04:15.71    \nframe=  406 fps=1.6 q=33.0 size=    4608KiB time=00:00:03.38 bitrate=11157.3kbits/s speed=0.0132x elapsed=0:04:16.29    \nframe=  408 fps=1.6 q=32.0 size=    4608KiB time=00:00:03.40 bitrate=11102.6kbits/s speed=0.0132x elapsed=0:04:16.90    \nframe=  410 fps=1.6 q=32.0 size=    4608KiB time=00:00:03.41 bitrate=11048.4kbits/s speed=0.0133x elapsed=0:04:17.52    \nframe=  412 fps=1.6 q=32.0 size=    4608KiB time=00:00:03.43 bitrate=10994.8kbits/s speed=0.0133x elapsed=0:04:18.45    \nframe=  414 fps=1.6 q=32.0 size=    4608KiB time=00:00:03.45 bitrate=10941.7kbits/s speed=0.0133x elapsed=0:04:19.12    \nframe=  414 fps=1.6 q=32.0 size=    4608KiB time=00:00:03.45 bitrate=10941.7kbits/s speed=0.0133x elapsed=0:04:19.92    \nframe=  415 fps=1.6 q=18.0 size=    4608KiB time=00:00:03.45 bitrate=10941.7kbits/s speed=0.0132x elapsed=0:04:20.79    \nframe=  418 fps=1.6 q=32.0 size=    4608KiB time=00:00:03.47 bitrate=10862.9kbits/s speed=0.0133x elapsed=0:04:21.62    \nframe=  419 fps=1.6 q=32.0 size=    4608KiB time=00:00:03.49 bitrate=10811.1kbits/s speed=0.0133x elapsed=0:04:22.57    \nframe=  422 fps=1.6 q=33.0 size=    4608KiB time=00:00:03.50 bitrate=10759.7kbits/s speed=0.0133x elapsed=0:04:23.25    \nframe=  424 fps=1.6 q=32.0 size=    4608KiB time=00:00:03.52 bitrate=10708.9kbits/s speed=0.0134x elapsed=0:04:23.99    \nframe=  426 fps=1.6 q=33.0 size=    4608KiB time=00:00:03.55 bitrate=10633.4kbits/s speed=0.0134x elapsed=0:04:24.75    \nframe=  428 fps=1.6 q=33.0 size=    4608KiB time=00:00:03.55 bitrate=10608.5kbits/s speed=0.0134x elapsed=0:04:25.39    \nframe=  429 fps=1.6 q=33.0 size=    4608KiB time=00:00:03.57 bitrate=10559.1kbits/s speed=0.0134x elapsed=0:04:26.29    \nframe=  429 fps=1.6 q=33.0 size=    4608KiB time=00:00:03.57 bitrate=10559.1kbits/s speed=0.0134x elapsed=0:04:27.17    \nframe=  432 fps=1.6 q=33.0 size=    4608KiB time=00:00:03.59 bitrate=10510.1kbits/s speed=0.0134x elapsed=0:04:28.05    \nframe=  434 fps=1.6 q=33.0 size=    4608KiB time=00:00:03.61 bitrate=10437.4kbits/s speed=0.0135x elapsed=0:04:28.86    \nframe=  436 fps=1.6 q=33.0 size=    4608KiB time=00:00:03.63 bitrate=10389.6kbits/s speed=0.0135x elapsed=0:04:29.61    \nframe=  438 fps=1.6 q=33.0 size=    4608KiB time=00:00:03.65 bitrate=10342.1kbits/s speed=0.0135x elapsed=0:04:30.12    \nframe=  439 fps=1.6 q=33.0 size=    4608KiB time=00:00:03.65 bitrate=10318.6kbits/s speed=0.0135x elapsed=0:04:30.64    \nframe=  441 fps=1.6 q=33.0 size=    4608KiB time=00:00:03.67 bitrate=10271.8kbits/s speed=0.0136x elapsed=0:04:31.14    \nframe=  442 fps=1.6 q=33.0 size=    4608KiB time=00:00:03.68 bitrate=10248.5kbits/s speed=0.0136x elapsed=0:04:31.66    \nframe=  444 fps=1.6 q=34.0 size=    4608KiB time=00:00:03.70 bitrate=10202.4kbits/s speed=0.0136x elapsed=0:04:32.18    \nframe=  444 fps=1.6 q=34.0 size=    4608KiB time=00:00:03.70 bitrate=10202.4kbits/s speed=0.0136x elapsed=0:04:32.69    \nframe=  444 fps=1.6 q=34.0 size=    4608KiB time=00:00:03.70 bitrate=10202.4kbits/s speed=0.0135x elapsed=0:04:33.21    \nframe=  445 fps=1.6 q=20.0 size=    4608KiB time=00:00:03.70 bitrate=10179.4kbits/s speed=0.0135x elapsed=0:04:33.72    \nframe=  447 fps=1.6 q=33.0 size=    4608KiB time=00:00:03.72 bitrate=10133.9kbits/s speed=0.0136x elapsed=0:04:34.23    \nframe=  448 fps=1.6 q=34.0 size=    4608KiB time=00:00:03.73 bitrate=10111.3kbits/s speed=0.0136x elapsed=0:04:34.76    \nframe=  450 fps=1.6 q=33.0 size=    4608KiB time=00:00:03.75 bitrate=10066.3kbits/s speed=0.0136x elapsed=0:04:35.27    \nframe=  452 fps=1.6 q=33.0 size=    4608KiB time=00:00:03.76 bitrate=10021.8kbits/s speed=0.0137x elapsed=0:04:35.78    \nframe=  454 fps=1.6 q=32.0 size=    4608KiB time=00:00:03.78 bitrate=9977.6kbits/s speed=0.0137x elapsed=0:04:36.31    \nframe=  455 fps=1.6 q=32.0 size=    4608KiB time=00:00:03.79 bitrate=9955.7kbits/s speed=0.0137x elapsed=0:04:36.81    \nframe=  457 fps=1.6 q=32.0 size=    4608KiB time=00:00:03.80 bitrate=9912.1kbits/s speed=0.0137x elapsed=0:04:37.34    \nframe=  458 fps=1.6 q=32.0 size=    4608KiB time=00:00:03.81 bitrate=9890.5kbits/s speed=0.0137x elapsed=0:04:37.85    \nframe=  459 fps=1.6 q=32.0 size=    4608KiB time=00:00:03.82 bitrate=9869.0kbits/s speed=0.0137x elapsed=0:04:38.36    \nframe=  459 fps=1.6 q=32.0 size=    4608KiB time=00:00:03.82 bitrate=9869.0kbits/s speed=0.0137x elapsed=0:04:38.88    \nframe=  460 fps=1.6 q=21.0 size=    4608KiB time=00:00:03.83 bitrate=9847.5kbits/s speed=0.0137x elapsed=0:04:39.39    \nframe=  461 fps=1.6 q=31.0 size=    4608KiB time=00:00:03.84 bitrate=9826.1kbits/s speed=0.0137x elapsed=0:04:39.91    \nframe=  462 fps=1.6 q=31.0 size=    4608KiB time=00:00:03.85 bitrate=9804.9kbits/s speed=0.0137x elapsed=0:04:40.42    \nframe=  463 fps=1.6 q=31.0 size=    4608KiB time=00:00:03.85 bitrate=9783.7kbits/s speed=0.0137x elapsed=0:04:40.94    \nframe=  465 fps=1.7 q=31.0 size=    4608KiB time=00:00:03.87 bitrate=9741.6kbits/s speed=0.0138x elapsed=0:04:41.47    \nframe=  466 fps=1.7 q=31.0 size=    4608KiB time=00:00:03.88 bitrate=9720.7kbits/s speed=0.0138x elapsed=0:04:41.97    \nframe=  467 fps=1.7 q=31.0 size=    4608KiB time=00:00:03.89 bitrate=9699.9kbits/s speed=0.0138x elapsed=0:04:42.49    \nframe=  468 fps=1.7 q=31.0 size=    4608KiB time=00:00:03.90 bitrate=9679.2kbits/s speed=0.0138x elapsed=0:04:43.01    \nframe=  469 fps=1.7 q=31.0 size=    4608KiB time=00:00:03.90 bitrate=9658.5kbits/s speed=0.0138x elapsed=0:04:43.52    \nframe=  469 fps=1.7 q=31.0 size=    4608KiB time=00:00:03.90 bitrate=9658.5kbits/s speed=0.0138x elapsed=0:04:44.04    \nframe=  470 fps=1.7 q=31.0 size=    4608KiB time=00:00:03.91 bitrate=9638.0kbits/s speed=0.0138x elapsed=0:04:44.55    \nframe=  471 fps=1.7 q=31.0 size=    4608KiB time=00:00:03.92 bitrate=9617.5kbits/s speed=0.0138x elapsed=0:04:45.07    \nframe=  472 fps=1.7 q=31.0 size=    4608KiB time=00:00:03.93 bitrate=9597.1kbits/s speed=0.0138x elapsed=0:04:45.58    \nframe=  472 fps=1.6 q=31.0 size=    4608KiB time=00:00:03.93 bitrate=9597.1kbits/s speed=0.0137x elapsed=0:04:46.09    \nframe=  473 fps=1.7 q=31.0 size=    4608KiB time=00:00:03.94 bitrate=9576.8kbits/s speed=0.0138x elapsed=0:04:46.62    \nframe=  474 fps=1.7 q=31.0 size=    4608KiB time=00:00:03.95 bitrate=9556.6kbits/s speed=0.0138x elapsed=0:04:47.13    \nframe=  474 fps=1.6 q=31.0 size=    4608KiB time=00:00:03.95 bitrate=9556.6kbits/s speed=0.0137x elapsed=0:04:47.65    \nframe=  474 fps=1.6 q=31.0 size=    4608KiB time=00:00:03.95 bitrate=9556.6kbits/s speed=0.0137x elapsed=0:04:48.16    \nframe=  474 fps=1.6 q=31.0 size=    4608KiB time=00:00:03.95 bitrate=9556.6kbits/s speed=0.0137x elapsed=0:04:48.68    \nframe=  474 fps=1.6 q=31.0 size=    4608KiB time=00:00:03.95 bitrate=9556.6kbits/s speed=0.0137x elapsed=0:04:49.19    \nframe=  475 fps=1.6 q=18.0 size=    4608KiB time=00:00:03.95 bitrate=9536.5kbits/s speed=0.0137x elapsed=0:04:49.71    \nframe=  476 fps=1.6 q=31.0 size=    4608KiB time=00:00:03.96 bitrate=9516.5kbits/s speed=0.0137x elapsed=0:04:50.22    \nframe=  477 fps=1.6 q=31.0 size=    4608KiB time=00:00:03.97 bitrate=9496.5kbits/s speed=0.0137x elapsed=0:04:50.74    \nframe=  478 fps=1.6 q=31.0 size=    4608KiB time=00:00:03.98 bitrate=9476.7kbits/s speed=0.0137x elapsed=0:04:51.26    \nframe=  478 fps=1.6 q=31.0 size=    4608KiB time=00:00:03.98 bitrate=9476.7kbits/s speed=0.0137x elapsed=0:04:51.77    \nframe=  480 fps=1.6 q=31.0 size=    4608KiB time=00:00:04.00 bitrate=9437.2kbits/s speed=0.0137x elapsed=0:04:52.29    \nframe=  481 fps=1.6 q=31.0 size=    4608KiB time=00:00:04.00 bitrate=9417.6kbits/s speed=0.0137x elapsed=0:04:52.80    \nframe=  482 fps=1.6 q=31.0 size=    4608KiB time=00:00:04.01 bitrate=9398.0kbits/s speed=0.0137x elapsed=0:04:53.31    \nframe=  482 fps=1.6 q=31.0 size=    4608KiB time=00:00:04.01 bitrate=9398.0kbits/s speed=0.0137x elapsed=0:04:53.83    \nframe=  483 fps=1.6 q=31.0 size=    4608KiB time=00:00:04.02 bitrate=9378.6kbits/s speed=0.0137x elapsed=0:04:54.35    \nframe=  484 fps=1.6 q=31.0 size=    4608KiB time=00:00:04.03 bitrate=9359.2kbits/s speed=0.0137x elapsed=0:04:54.86    \nframe=  485 fps=1.6 q=31.0 size=    4608KiB time=00:00:04.04 bitrate=9339.9kbits/s speed=0.0137x elapsed=0:04:55.39    \nframe=  486 fps=1.6 q=31.0 size=    4608KiB time=00:00:04.05 bitrate=9320.7kbits/s speed=0.0137x elapsed=0:04:55.90    \nframe=  487 fps=1.6 q=31.0 size=    4608KiB time=00:00:04.05 bitrate=9301.5kbits/s speed=0.0137x elapsed=0:04:56.41    \nframe=  487 fps=1.6 q=31.0 size=    4608KiB time=00:00:04.05 bitrate=9301.5kbits/s speed=0.0137x elapsed=0:04:56.92    \nframe=  488 fps=1.6 q=31.0 size=    4608KiB time=00:00:04.06 bitrate=9282.5kbits/s speed=0.0137x elapsed=0:04:57.44    \nframe=  489 fps=1.6 q=31.0 size=    4608KiB time=00:00:04.07 bitrate=9263.5kbits/s speed=0.0137x elapsed=0:04:57.95    \nframe=  489 fps=1.6 q=31.0 size=    4608KiB time=00:00:04.07 bitrate=9263.5kbits/s speed=0.0137x elapsed=0:04:58.48    \nframe=  489 fps=1.6 q=31.0 size=    4608KiB time=00:00:04.07 bitrate=9263.5kbits/s speed=0.0136x elapsed=0:04:58.98    \nframe=  489 fps=1.6 q=31.0 size=    4608KiB time=00:00:04.07 bitrate=9263.5kbits/s speed=0.0136x elapsed=0:04:59.51    \nframe=  490 fps=1.6 q=21.0 size=    4608KiB time=00:00:04.08 bitrate=9244.6kbits/s speed=0.0136x elapsed=0:05:00.03    \nframe=  491 fps=1.6 q=33.0 size=    4608KiB time=00:00:04.09 bitrate=9225.8kbits/s speed=0.0136x elapsed=0:05:00.54    \nframe=  491 fps=1.6 q=33.0 size=    4608KiB time=00:00:04.09 bitrate=9225.8kbits/s speed=0.0136x elapsed=0:05:01.05    \nframe=  492 fps=1.6 q=33.0 size=    4608KiB time=00:00:04.10 bitrate=9207.0kbits/s speed=0.0136x elapsed=0:05:01.58    \nframe=  493 fps=1.6 q=33.0 size=    4608KiB time=00:00:04.10 bitrate=9188.3kbits/s speed=0.0136x elapsed=0:05:02.09    \nframe=  494 fps=1.6 q=33.0 size=    4608KiB time=00:00:04.11 bitrate=9169.7kbits/s speed=0.0136x elapsed=0:05:02.60    \nframe=  495 fps=1.6 q=33.0 size=    4608KiB time=00:00:04.12 bitrate=9151.2kbits/s speed=0.0136x elapsed=0:05:03.12    \nframe=  496 fps=1.6 q=33.0 size=    4608KiB time=00:00:04.13 bitrate=9132.8kbits/s speed=0.0136x elapsed=0:05:03.63    \nframe=  497 fps=1.6 q=33.0 size=    4608KiB time=00:00:04.14 bitrate=9114.4kbits/s speed=0.0136x elapsed=0:05:04.15    \nframe=  498 fps=1.6 q=34.0 size=    4608KiB time=00:00:04.15 bitrate=9096.1kbits/s speed=0.0136x elapsed=0:05:04.66    \nframe=  499 fps=1.6 q=34.0 size=    4608KiB time=00:00:04.15 bitrate=9077.9kbits/s speed=0.0136x elapsed=0:05:05.18    \nframe=  500 fps=1.6 q=34.0 size=    4608KiB time=00:00:04.16 bitrate=9059.7kbits/s speed=0.0136x elapsed=0:05:05.69    \nframe=  500 fps=1.6 q=34.0 size=    4608KiB time=00:00:04.16 bitrate=9059.7kbits/s speed=0.0136x elapsed=0:05:06.21    \nframe=  500 fps=1.6 q=34.0 size=    4608KiB time=00:00:04.16 bitrate=9059.7kbits/s speed=0.0136x elapsed=0:05:06.73    \nframe=  500 fps=1.6 q=34.0 size=    4608KiB time=00:00:04.16 bitrate=9059.7kbits/s speed=0.0136x elapsed=0:05:07.24    \nframe=  500 fps=1.6 q=34.0 size=    4608KiB time=00:00:04.16 bitrate=9059.7kbits/s speed=0.0135x elapsed=0:05:07.76    \nframe=  501 fps=1.6 q=18.0 size=    4608KiB time=00:00:04.17 bitrate=9041.6kbits/s speed=0.0135x elapsed=0:05:08.27    \nframe=  502 fps=1.6 q=32.0 size=    4608KiB time=00:00:04.18 bitrate=9023.6kbits/s speed=0.0135x elapsed=0:05:08.79    \nframe=  503 fps=1.6 q=32.0 size=    4608KiB time=00:00:04.19 bitrate=9005.7kbits/s speed=0.0136x elapsed=0:05:09.31    \nframe=  503 fps=1.6 q=32.0 size=    4608KiB time=00:00:04.19 bitrate=9005.7kbits/s speed=0.0135x elapsed=0:05:09.83    \nframe=  504 fps=1.6 q=32.0 size=    4608KiB time=00:00:04.20 bitrate=8987.8kbits/s speed=0.0135x elapsed=0:05:10.35    \nframe=  505 fps=1.6 q=32.0 size=    4608KiB time=00:00:04.20 bitrate=8970.0kbits/s speed=0.0135x elapsed=0:05:10.86    \nframe=  507 fps=1.6 q=31.0 size=    4608KiB time=00:00:04.22 bitrate=8934.6kbits/s speed=0.0136x elapsed=0:05:11.38    \nframe=  508 fps=1.6 q=31.0 size=    4608KiB time=00:00:04.23 bitrate=8917.0kbits/s speed=0.0136x elapsed=0:05:11.89    \nframe=  509 fps=1.6 q=31.0 size=    4608KiB time=00:00:04.24 bitrate=8899.5kbits/s speed=0.0136x elapsed=0:05:12.42    \nframe=  510 fps=1.6 q=31.0 size=    4608KiB time=00:00:04.25 bitrate=8882.1kbits/s speed=0.0136x elapsed=0:05:12.93    \nframe=  511 fps=1.6 q=31.0 size=    4608KiB time=00:00:04.25 bitrate=8864.7kbits/s speed=0.0136x elapsed=0:05:13.45    \nframe=  512 fps=1.6 q=31.0 size=    4608KiB time=00:00:04.26 bitrate=8847.4kbits/s speed=0.0136x elapsed=0:05:13.95    \nframe=  512 fps=1.6 q=31.0 size=    4608KiB time=00:00:04.26 bitrate=8847.4kbits/s speed=0.0136x elapsed=0:05:14.47    \nframe=  512 fps=1.6 q=31.0 size=    4608KiB time=00:00:04.26 bitrate=8847.4kbits/s speed=0.0135x elapsed=0:05:14.99    \nframe=  513 fps=1.6 q=18.0 size=    4608KiB time=00:00:04.27 bitrate=8830.1kbits/s speed=0.0135x elapsed=0:05:15.50    \nframe=  514 fps=1.6 q=30.0 size=    6400KiB time=00:00:04.28 bitrate=12240.2kbits/s speed=0.0136x elapsed=0:05:16.02    \nframe=  515 fps=1.6 q=32.0 size=    6400KiB time=00:00:04.29 bitrate=12216.4kbits/s speed=0.0136x elapsed=0:05:16.53    \nframe=  516 fps=1.6 q=32.0 size=    6400KiB time=00:00:04.30 bitrate=12192.7kbits/s speed=0.0136x elapsed=0:05:17.06    \nframe=  516 fps=1.6 q=32.0 size=    6400KiB time=00:00:04.30 bitrate=12192.7kbits/s speed=0.0135x elapsed=0:05:17.57    \nframe=  517 fps=1.6 q=32.0 size=    6400KiB time=00:00:04.30 bitrate=12169.2kbits/s speed=0.0135x elapsed=0:05:18.09    \nframe=  518 fps=1.6 q=32.0 size=    6400KiB time=00:00:04.31 bitrate=12145.7kbits/s speed=0.0135x elapsed=0:05:18.60    \nframe=  519 fps=1.6 q=31.0 size=    6400KiB time=00:00:04.32 bitrate=12122.3kbits/s speed=0.0136x elapsed=0:05:19.11    \nframe=  520 fps=1.6 q=31.0 size=    6400KiB time=00:00:04.33 bitrate=12099.0kbits/s speed=0.0136x elapsed=0:05:19.63    \nframe=  522 fps=1.6 q=31.0 size=    6400KiB time=00:00:04.35 bitrate=12052.6kbits/s speed=0.0136x elapsed=0:05:20.15    \nframe=  523 fps=1.6 q=31.0 size=    6400KiB time=00:00:04.35 bitrate=12029.6kbits/s speed=0.0136x elapsed=0:05:20.66    \nframe=  524 fps=1.6 q=31.0 size=    6400KiB time=00:00:04.36 bitrate=12006.6kbits/s speed=0.0136x elapsed=0:05:21.18    \nframe=  526 fps=1.6 q=31.0 size=    6400KiB time=00:00:04.38 bitrate=11960.9kbits/s speed=0.0136x elapsed=0:05:21.69    \nframe=  526 fps=1.6 q=31.0 size=    6400KiB time=00:00:04.38 bitrate=11960.9kbits/s speed=0.0136x elapsed=0:05:22.20    \nframe=  527 fps=1.6 q=31.0 size=    6400KiB time=00:00:04.39 bitrate=11938.2kbits/s speed=0.0136x elapsed=0:05:22.73    \nframe=  527 fps=1.6 q=31.0 size=    6400KiB time=00:00:04.39 bitrate=11938.2kbits/s speed=0.0136x elapsed=0:05:23.25    \nframe=  527 fps=1.6 q=31.0 size=    6400KiB time=00:00:04.39 bitrate=11938.2kbits/s speed=0.0136x elapsed=0:05:23.77    \nframe=  527 fps=1.6 q=31.0 size=    6400KiB time=00:00:04.39 bitrate=11938.2kbits/s speed=0.0135x elapsed=0:05:24.29    \nframe=  528 fps=1.6 q=18.0 size=    6400KiB time=00:00:04.40 bitrate=11915.6kbits/s speed=0.0135x elapsed=0:05:24.81    \nframe=  529 fps=1.6 q=31.0 size=    6400KiB time=00:00:04.40 bitrate=11893.1kbits/s speed=0.0135x elapsed=0:05:25.36    \nframe=  529 fps=1.6 q=31.0 size=    6400KiB time=00:00:04.40 bitrate=11893.1kbits/s speed=0.0135x elapsed=0:05:25.88    \nframe=  530 fps=1.6 q=31.0 size=    6400KiB time=00:00:04.41 bitrate=11870.7kbits/s speed=0.0135x elapsed=0:05:26.39    \nframe=  531 fps=1.6 q=31.0 size=    6400KiB time=00:00:04.42 bitrate=11848.3kbits/s speed=0.0135x elapsed=0:05:26.91    \nframe=  532 fps=1.6 q=31.0 size=    6400KiB time=00:00:04.43 bitrate=11826.0kbits/s speed=0.0135x elapsed=0:05:27.43    \nframe=  532 fps=1.6 q=31.0 size=    6400KiB time=00:00:04.43 bitrate=11826.0kbits/s speed=0.0135x elapsed=0:05:27.97    \nframe=  533 fps=1.6 q=31.0 size=    6400KiB time=00:00:04.44 bitrate=11803.9kbits/s speed=0.0135x elapsed=0:05:28.49    \nframe=  534 fps=1.6 q=31.0 size=    6400KiB time=00:00:04.45 bitrate=11781.8kbits/s speed=0.0135x elapsed=0:05:29.00    \nframe=  535 fps=1.6 q=31.0 size=    6400KiB time=00:00:04.45 bitrate=11759.7kbits/s speed=0.0135x elapsed=0:05:29.52    \nframe=  536 fps=1.6 q=31.0 size=    6400KiB time=00:00:04.46 bitrate=11737.8kbits/s speed=0.0135x elapsed=0:05:30.04    \nframe=  537 fps=1.6 q=30.0 size=    6400KiB time=00:00:04.47 bitrate=11715.9kbits/s speed=0.0135x elapsed=0:05:30.55    \nframe=  538 fps=1.6 q=30.0 size=    6400KiB time=00:00:04.48 bitrate=11694.2kbits/s speed=0.0135x elapsed=0:05:31.07    \nframe=  539 fps=1.6 q=30.0 size=    6400KiB time=00:00:04.49 bitrate=11672.5kbits/s speed=0.0135x elapsed=0:05:31.60    \nframe=  540 fps=1.6 q=31.0 size=    6400KiB time=00:00:04.50 bitrate=11650.8kbits/s speed=0.0135x elapsed=0:05:32.11    \nframe=  540 fps=1.6 q=31.0 size=    6400KiB time=00:00:04.50 bitrate=11650.8kbits/s speed=0.0135x elapsed=0:05:32.63    \nframe=  541 fps=1.6 q=31.0 size=    6400KiB time=00:00:04.50 bitrate=11629.3kbits/s speed=0.0135x elapsed=0:05:33.15    \nframe=  542 fps=1.6 q=31.0 size=    6400KiB time=00:00:04.51 bitrate=11607.9kbits/s speed=0.0135x elapsed=0:05:33.68    \nframe=  542 fps=1.6 q=31.0 size=    6400KiB time=00:00:04.51 bitrate=11607.9kbits/s speed=0.0135x elapsed=0:05:34.20    \nframe=  542 fps=1.6 q=31.0 size=    6400KiB time=00:00:04.51 bitrate=11607.9kbits/s speed=0.0135x elapsed=0:05:34.72    \nframe=  542 fps=1.6 q=31.0 size=    6400KiB time=00:00:04.51 bitrate=11607.9kbits/s speed=0.0135x elapsed=0:05:35.24    \nframe=  542 fps=1.6 q=31.0 size=    6400KiB time=00:00:04.51 bitrate=11607.9kbits/s speed=0.0135x elapsed=0:05:35.75    \nframe=  543 fps=1.6 q=17.0 size=    6400KiB time=00:00:04.52 bitrate=11586.5kbits/s speed=0.0135x elapsed=0:05:36.27    \nframe=  544 fps=1.6 q=31.0 size=    6400KiB time=00:00:04.53 bitrate=11565.2kbits/s speed=0.0135x elapsed=0:05:36.79    \nframe=  545 fps=1.6 q=31.0 size=    6400KiB time=00:00:04.54 bitrate=11544.0kbits/s speed=0.0135x elapsed=0:05:37.30    \nframe=  546 fps=1.6 q=31.0 size=    6400KiB time=00:00:04.55 bitrate=11522.8kbits/s speed=0.0135x elapsed=0:05:37.81    \nframe=  547 fps=1.6 q=31.0 size=    6400KiB time=00:00:04.55 bitrate=11501.7kbits/s speed=0.0135x elapsed=0:05:38.33    \nframe=  548 fps=1.6 q=31.0 size=    6400KiB time=00:00:04.56 bitrate=11480.8kbits/s speed=0.0135x elapsed=0:05:38.85    \nframe=  549 fps=1.6 q=31.0 size=    6400KiB time=00:00:04.57 bitrate=11459.8kbits/s speed=0.0135x elapsed=0:05:39.36    \nframe=  550 fps=1.6 q=31.0 size=    6400KiB time=00:00:04.58 bitrate=11439.0kbits/s speed=0.0135x elapsed=0:05:39.87    \nframe=  551 fps=1.6 q=31.0 size=    6400KiB time=00:00:04.59 bitrate=11418.2kbits/s speed=0.0135x elapsed=0:05:40.39    \nframe=  553 fps=1.6 q=31.0 size=    6400KiB time=00:00:04.60 bitrate=11377.0kbits/s speed=0.0135x elapsed=0:05:40.91    \nframe=  553 fps=1.6 q=31.0 size=    6400KiB time=00:00:04.60 bitrate=11377.0kbits/s speed=0.0135x elapsed=0:05:41.43    \nframe=  554 fps=1.6 q=31.0 size=    6400KiB time=00:00:04.61 bitrate=11356.4kbits/s speed=0.0135x elapsed=0:05:41.94    \nframe=  555 fps=1.6 q=31.0 size=    6400KiB time=00:00:04.62 bitrate=11336.0kbits/s speed=0.0135x elapsed=0:05:42.46    \nframe=  556 fps=1.6 q=31.0 size=    6400KiB time=00:00:04.63 bitrate=11315.6kbits/s speed=0.0135x elapsed=0:05:42.98    \nframe=  557 fps=1.6 q=31.0 size=    6400KiB time=00:00:04.64 bitrate=11295.3kbits/s speed=0.0135x elapsed=0:05:43.51    \nframe=  557 fps=1.6 q=31.0 size=    6400KiB time=00:00:04.64 bitrate=11295.3kbits/s speed=0.0135x elapsed=0:05:44.03    \nframe=  557 fps=1.6 q=31.0 size=    6400KiB time=00:00:04.64 bitrate=11295.3kbits/s speed=0.0135x elapsed=0:05:44.55    \nframe=  557 fps=1.6 q=31.0 size=    6400KiB time=00:00:04.64 bitrate=11295.3kbits/s speed=0.0135x elapsed=0:05:45.08    \nframe=  558 fps=1.6 q=20.0 size=    6400KiB time=00:00:04.65 bitrate=11275.0kbits/s speed=0.0135x elapsed=0:05:45.60    \nframe=  559 fps=1.6 q=31.0 size=    6400KiB time=00:00:04.65 bitrate=11254.8kbits/s speed=0.0135x elapsed=0:05:46.12    \nframe=  560 fps=1.6 q=31.0 size=    6400KiB time=00:00:04.66 bitrate=11234.7kbits/s speed=0.0135x elapsed=0:05:46.63    \nframe=  562 fps=1.6 q=31.0 size=    6400KiB time=00:00:04.68 bitrate=11194.8kbits/s speed=0.0135x elapsed=0:05:47.15    \nframe=  563 fps=1.6 q=31.0 size=    6400KiB time=00:00:04.69 bitrate=11174.9kbits/s speed=0.0135x elapsed=0:05:47.67    \nframe=  564 fps=1.6 q=30.0 size=    6400KiB time=00:00:04.70 bitrate=11155.1kbits/s speed=0.0135x elapsed=0:05:48.19    \nframe=  566 fps=1.6 q=31.0 size=    6400KiB time=00:00:04.71 bitrate=11115.6kbits/s speed=0.0135x elapsed=0:05:48.71    \nframe=  567 fps=1.6 q=31.0 size=    6400KiB time=00:00:04.72 bitrate=11096.0kbits/s speed=0.0135x elapsed=0:05:49.23    \nframe=  568 fps=1.6 q=30.0 size=    6400KiB time=00:00:04.73 bitrate=11076.5kbits/s speed=0.0135x elapsed=0:05:49.76    \nframe=  568 fps=1.6 q=30.0 size=    6400KiB time=00:00:04.73 bitrate=11076.5kbits/s speed=0.0135x elapsed=0:05:50.27    \nframe=  569 fps=1.6 q=31.0 size=    6400KiB time=00:00:04.74 bitrate=11057.0kbits/s speed=0.0135x elapsed=0:05:50.79    \nframe=  570 fps=1.6 q=31.0 size=    6400KiB time=00:00:04.75 bitrate=11037.6kbits/s speed=0.0135x elapsed=0:05:51.31    \nframe=  571 fps=1.6 q=31.0 size=    6400KiB time=00:00:04.75 bitrate=11018.3kbits/s speed=0.0135x elapsed=0:05:51.84    \nframe=  572 fps=1.6 q=31.0 size=    6400KiB time=00:00:04.76 bitrate=10999.0kbits/s speed=0.0135x elapsed=0:05:52.35    \nframe=  572 fps=1.6 q=31.0 size=    6400KiB time=00:00:04.76 bitrate=10999.0kbits/s speed=0.0135x elapsed=0:05:52.86    \nframe=  572 fps=1.6 q=31.0 size=    6400KiB time=00:00:04.76 bitrate=10999.0kbits/s speed=0.0135x elapsed=0:05:53.39    \nframe=  572 fps=1.6 q=31.0 size=    6400KiB time=00:00:04.76 bitrate=10999.0kbits/s speed=0.0135x elapsed=0:05:53.91    \nframe=  572 fps=1.6 q=31.0 size=    6400KiB time=00:00:04.76 bitrate=10999.0kbits/s speed=0.0134x elapsed=0:05:54.43    \nframe=  573 fps=1.6 q=19.0 size=    6400KiB time=00:00:04.77 bitrate=10979.9kbits/s speed=0.0135x elapsed=0:05:54.96    \nframe=  573 fps=1.6 q=19.0 size=    6400KiB time=00:00:04.77 bitrate=10979.9kbits/s speed=0.0134x elapsed=0:05:55.50    \nframe=  574 fps=1.6 q=31.0 size=    6400KiB time=00:00:04.78 bitrate=10960.7kbits/s speed=0.0134x elapsed=0:05:56.02    \nframe=  575 fps=1.6 q=31.0 size=    6400KiB time=00:00:04.79 bitrate=10941.7kbits/s speed=0.0134x elapsed=0:05:56.55    \nframe=  576 fps=1.6 q=31.0 size=    6400KiB time=00:00:04.80 bitrate=10922.7kbits/s speed=0.0134x elapsed=0:05:57.07    \nframe=  576 fps=1.6 q=31.0 size=    6400KiB time=00:00:04.80 bitrate=10922.7kbits/s speed=0.0134x elapsed=0:05:57.59    \nframe=  576 fps=1.6 q=31.0 size=    6400KiB time=00:00:04.80 bitrate=10922.7kbits/s speed=0.0134x elapsed=0:05:58.10    \nframe=  576 fps=1.6 q=31.0 size=    6400KiB time=00:00:04.80 bitrate=10922.7kbits/s speed=0.0134x elapsed=0:05:58.64    \nframe=  576 fps=1.6 q=31.0 size=    6400KiB time=00:00:04.80 bitrate=10922.7kbits/s speed=0.0134x elapsed=0:05:59.17    \nframe=  576 fps=1.6 q=31.0 size=    6400KiB time=00:00:04.80 bitrate=10922.7kbits/s speed=0.0133x elapsed=0:05:59.68    \nframe=  576 fps=1.6 q=31.0 size=    6400KiB time=00:00:04.80 bitrate=10922.7kbits/s speed=0.0133x elapsed=0:06:00.19    \nframe=  576 fps=1.6 q=31.0 size=    6400KiB time=00:00:04.80 bitrate=10922.7kbits/s speed=0.0133x elapsed=0:06:00.71    \nframe=  576 fps=1.6 q=31.0 size=    6400KiB time=00:00:04.80 bitrate=10922.7kbits/s speed=0.0133x elapsed=0:06:01.23    \nframe=  576 fps=1.6 q=31.0 size=    6400KiB time=00:00:04.80 bitrate=10922.7kbits/s speed=0.0133x elapsed=0:06:01.74    \nframe=  576 fps=1.6 q=31.0 size=    6400KiB time=00:00:04.80 bitrate=10922.7kbits/s speed=0.0133x elapsed=0:06:02.26    \nframe=  576 fps=1.6 q=31.0 size=    6400KiB time=00:00:04.80 bitrate=10922.7kbits/s speed=0.0132x elapsed=0:06:02.77    \nframe=  576 fps=1.6 q=31.0 size=    6400KiB time=00:00:04.80 bitrate=10922.7kbits/s speed=0.0132x elapsed=0:06:03.29    \nframe=  576 fps=1.6 q=31.0 size=    6400KiB time=00:00:04.80 bitrate=10922.7kbits/s speed=0.0132x elapsed=0:06:03.80    \nframe=  576 fps=1.6 q=31.0 size=    6400KiB time=00:00:04.80 bitrate=10922.7kbits/s speed=0.0132x elapsed=0:06:04.33    \nframe=  576 fps=1.6 q=31.0 size=    6400KiB time=00:00:04.80 bitrate=10922.7kbits/s speed=0.0132x elapsed=0:06:04.85    \nframe=  576 fps=1.6 q=31.0 size=    6400KiB time=00:00:04.80 bitrate=10922.7kbits/s speed=0.0131x elapsed=0:06:05.37    \nframe=  576 fps=1.6 q=31.0 size=    6400KiB time=00:00:04.80 bitrate=10922.7kbits/s speed=0.0131x elapsed=0:06:05.90    \nframe=  576 fps=1.6 q=31.0 size=    6400KiB time=00:00:04.80 bitrate=10922.7kbits/s speed=0.0131x elapsed=0:06:06.42    \nframe=  576 fps=1.6 q=31.0 size=    6400KiB time=00:00:04.80 bitrate=10922.7kbits/s speed=0.0131x elapsed=0:06:06.94    \nframe=  576 fps=1.6 q=31.0 size=    6400KiB time=00:00:04.80 bitrate=10922.7kbits/s speed=0.0131x elapsed=0:06:07.46    \nframe=  576 fps=1.6 q=31.0 size=    6400KiB time=00:00:04.80 bitrate=10922.7kbits/s speed=0.013x elapsed=0:06:07.97    \nframe=  576 fps=1.6 q=31.0 size=    6400KiB time=00:00:04.80 bitrate=10922.7kbits/s speed=0.013x elapsed=0:06:08.49    \nframe=  576 fps=1.6 q=31.0 size=    6400KiB time=00:00:04.80 bitrate=10922.7kbits/s speed=0.013x elapsed=0:06:09.00    \nframe=  576 fps=1.6 q=31.0 size=    6400KiB time=00:00:04.80 bitrate=10922.7kbits/s speed=0.013x elapsed=0:06:09.52    \nframe=  576 fps=1.6 q=31.0 size=    6400KiB time=00:00:04.80 bitrate=10922.7kbits/s speed=0.013x elapsed=0:06:10.04    \nframe=  576 fps=1.6 q=31.0 size=    6400KiB time=00:00:04.80 bitrate=10922.7kbits/s speed=0.013x elapsed=0:06:10.56    \nframe=  576 fps=1.6 q=31.0 size=    6400KiB time=00:00:04.80 bitrate=10922.7kbits/s speed=0.0129x elapsed=0:06:11.08    \nframe=  576 fps=1.6 q=31.0 size=    6400KiB time=00:00:04.80 bitrate=10922.7kbits/s speed=0.0129x elapsed=0:06:11.61    \nframe=  576 fps=1.5 q=31.0 size=    6400KiB time=00:00:04.80 bitrate=10922.7kbits/s speed=0.0129x elapsed=0:06:12.12    \nframe=  576 fps=1.5 q=31.0 size=    6400KiB time=00:00:04.80 bitrate=10922.7kbits/s speed=0.0129x elapsed=0:06:12.63    \nframe=  576 fps=1.5 q=31.0 size=    6400KiB time=00:00:04.80 bitrate=10922.7kbits/s speed=0.0129x elapsed=0:06:13.15    \nframe=  576 fps=1.5 q=31.0 size=    6400KiB time=00:00:04.80 bitrate=10922.7kbits/s speed=0.0128x elapsed=0:06:13.67    \nframe=  576 fps=1.5 q=31.0 size=    6400KiB time=00:00:04.80 bitrate=10922.7kbits/s speed=0.0128x elapsed=0:06:14.19    \n[out#0/webm @ 000001f5b9079480] video:7597KiB audio:0KiB subtitle:0KiB other streams:0KiB global headers:0KiB muxing overhead: 0.062670%\nframe=  600 fps=1.6 q=31.0 Lsize=    7601KiB time=00:00:05.00 bitrate=12454.0kbits/s speed=0.0133x elapsed=0:06:14.55    \n",
  "seconds": 378.06752347946167,
  "probe_out": {}
}